<?xml version="1.0" encoding="utf-8"?>
<!-- Generator: Adobe Illustrator 27.2.0, SVG Export Plug-In . SVG Version: 6.00 Build 0)  -->
<svg version="1.1" id="Layer_1" xmlns="http://www.w3.org/2000/svg" xmlns:xlink="http://www.w3.org/1999/xlink" x="0px" y="0px"
	 viewBox="0 0 1280 1024" style="enable-background:new 0 0 1280 1024;" xml:space="preserve">
<style type="text/css">
	.st0{fill:#3B2D61;}
	.st1{fill:#6DC9F7;}
	.st2{fill:#0089EF;}
	.st3{fill:#FA759E;}
	.st4{fill:#FFD7E5;}
	.st5{fill:#D4FBFF;}
	.st6{fill:#FFFFFF;}
	.st7{fill:#E6E7E8;}
</style>
<g>
	<path class="st0" d="M61.25,218.59c-4.66-3.75-8.38-8.23-10.78-13.7c-1.56-3.56-2.4-7.31-2.49-11.28
		c-0.16-7.54,2.13-14.32,5.68-20.82c1.46-2.68,3.12-5.22,4.96-7.65c0.3-0.39,0.68-0.93,0.63-1.35c-0.2-1.57,0.43-3.03,0.46-4.57
		c0.04-1.82,0.38-3.64,0.61-5.57c-2.51-3.15-2.44-4.67,0.46-6.66c0.03-0.16,0.1-0.35,0.1-0.54c0-8.47,0-16.94-0.01-25.42
		c0-0.45-0.06-0.9-0.09-1.35c0.03-0.74,0.09-1.48,0.07-2.22c-0.01-0.53-0.41-0.51-0.8-0.45c-1.1,0.1-2.17-0.23-3.19-0.52
		c-1.86-0.52-3.25-2.95-3.03-4.82c0.21-1.88,1.65-3.55,3.6-3.89c0.63-0.11,1.29-0.09,1.93-0.09c32.78,0,65.55,0,98.33-0.01
		c0.91,0,1.81-0.01,2.65,0.39c1.67,0.81,2.8,1.97,2.59,4.02c-0.06,0.57,0.04,1.16,0.06,1.74c-1.3,2.09-3.13,3.02-5.63,2.82
		c-1.8-0.15-3.62-0.03-5.43-0.03c-1.47,0-2.93,0-4.31,0c-0.34,0.84-0.21,1.5-0.21,2.13c-0.01,7.56-0.01,15.13-0.01,22.69
		c0,3.01-0.26,3.29-3.17,3.5c-0.1,0.01-0.19,0.15-0.45,0.36c0.79,1.21,0.36,2.66,0.57,4.18c2.12,1.81,4.33,3.67,6.12,5.95
		c1.06,0.89,1.51,2.32,2.74,3.06c0.02,0.25,0,0.5,0.18,0.73c1.62,2.13,3.22,4.26,4.83,6.4c5.59,7.41,9.65,15.41,10.63,24.86
		c0.37,3.59-0.1,6.95-0.74,10.38c-0.79,4.24-2.94,7.87-5.46,11.24c-2.38,3.18-5.05,6.16-8.88,7.7c-1.33,0.54-2.46,1.28-3.43,2.36
		c-2.25,2.48-4.43,5.04-6.96,7.24c-1.5,1.3-2.98,2.62-4.28,4.08c0.65,1.68,0.93,1.8,2.79,1.32c2.69-0.69,5.4-1.32,8.16-1.73
		c1.06-0.16,2.56-0.26,3.19-0.46c2.84,0.01,5.68,0.04,8.52,0.04c5.7,0,11.13,1.28,16.4,3.37c1.34,0.53,2.67,1.11,3.96,1.74
		c1.89,0.92,1.97,1.17,1.4,3.21c-0.05,0.18-0.02,0.39-0.03,0.58c-1.64,3.96-3.14,7.96-2.28,12.38c0.45,2.3,1.04,4.55,2.33,6.6
		c1.31,0.14,2.59,0.12,3.87,0.02c1,0.23,2.03-0.09,3.05,0.24c2.99,0.98,4.74,3.06,5.56,6.02c-0.03,0.38-0.08,0.77-0.08,1.15
		c-0.02,3.86-1.47,6.01-4.95,7.52c-1.15,0.5-2.32,0.62-3.55,0.62c-22.47-0.01-44.94-0.01-67.4,0c-0.71,0-1.41,0.05-2.12,0.08
		c-1,0.03-1.58-0.33-2.7-0.84c-0.91-1.06-1.74-2.16-2.35-3.44c-1.14-2.44-5.16-3.01-7.03-1.76c-1.06,0.71-1.76,1.67-2.21,2.78
		c-0.52,1.28-1.4,1.98-2.61,2.58c-1.05,0.52-2.07,0.6-3.16,0.6c-22.69,0-45.38,0-68.07,0.01c-0.77,0-1.55-0.14-2.31,0.08
		c-1.6-0.62-3.15-1.29-4.35-2.62c-1.88-2.07-2.84-4.43-1.98-7.14c1.02-3.23,3.02-5.61,6.69-5.86c1.86-0.12,3.74-0.02,5.63-0.02
		c4.14-7.2,2.46-14.05-0.55-20.83c0.61-2.08,2.6-2.35,4.11-3.05c3.73-1.74,7.7-2.85,11.75-3.52c1.48-0.24,3-0.56,4.55-0.51
		c2.91,0.08,5.82-0.01,8.73,0.03c3.19,0.05,6.29,0.67,9.39,1.38c1.83,0.42,3.66,0.79,5.44,1.29c0.59-0.21,0.6-0.82,1.06-1.42
		c-3.64-2.82-6.63-6.35-10.08-9.41 M70.17,144.44c-0.6-0.65-0.41-1.45-0.41-2.2c-0.01-7.81,0-15.63-0.02-23.44
		c0-0.68,0.22-1.41-0.23-2.06c-1.8,0-3.58,0-5.44,0c0,2.09,0,4.07,0,6.06c0,8.01,0,16.03,0,24.05c2.49,2.29,2.55,3.86,0.24,7.1
		c0.15,0.59,0.31,1.2,0.47,1.81c-0.13,0.56,0.01,0.88,0.69,0.76c1.56-1.64,3.13-3.29,4.7-4.94c0.78-0.73,1.55-1.46,2.34-2.21
		c-0.28-1.56,0.54-2.9,0.64-4.36C72.11,144.73,71.01,145.28,70.17,144.44z M38.42,246.25c-0.05,0.24,0.02,0.34,0.27,0.25
		c0.84,0.03,1.68,0.07,2.52,0.07c8.02,0.01,16.04,0.01,24.06,0c1.14,0,2.26-0.05,2.53,1.43c-0.31,1.6-1.49,1.69-2.78,1.69
		c-7.96-0.02-15.91-0.01-23.87,0c-0.63,0-1.27-0.11-2.02,0.17c-0.01,1.26-0.15,2.52,0.13,3.89c0.76,0,1.46,0,2.17,0
		c4.72,0.02,9.44,0.05,14.16,0.07c0.78,0,1.58-0.07,2.09,0.82c0.06,0.57,0.22,1.2-0.44,2.08c-6.07,0.33-12.39-0.02-18.7,0.19
		c-0.75,1.05-1.04,2.17-1.06,3.42c20.59,0,41.07,0,61.62,0c0.56-1.74,1.87-2.82,3.07-3.95c1.2-1.13,2.87-1.48,4.56-2.06
		c-3.04-1.9-5.88-3.66-8.79-5.48c-1.13,2.96-3.46,4.43-6.27,4.27c-2.83-0.17-4.76-2.16-5.59-4.79c-0.66-0.22-1.09-0.14-1.52,0.01
		c-4.21,1.45-7.98-2.52-7.83-5.99c0.05-1.22,0.01-2.45,0.01-3.88c-13.56-3.73-26.89-4.39-40.14,1.75
		C37.24,242.31,37.83,244.28,38.42,246.25z M75.93,116.99c-1,0-2.01-0.13-2.99,0.09c0,8.29,0,16.43,0,24.7
		c1.07-0.04,2.08,0.31,2.99-0.38c0.5,0.62,1.2,0.35,1.81,0.35c5.11,0.02,10.21,0.01,15.32,0.02c0.96,0,1.94-0.13,2.85,0.12
		c0.57,0.35,0.71,0.95,1,1.43c-0.6,1.27-1.63,1.57-2.98,1.55c-5.17-0.06-10.34-0.03-15.51-0.02c-0.63,0-1.29-0.16-1.92,0.21
		c-0.41,1.31-0.81,2.63-0.94,4.05c-0.13,1.47-0.55,2.87-1.94,3.75c-2.61,1.65-4.25,4.28-6.37,6.42c-1.49,1.51-2.12,3.33-1.73,5.44
		c0.69,3.78,1.1,7.58,1.18,11.42c0.03,1.34-0.61,2.01-1.68,2.52c-1.09,0.51-2.25,0.41-3.4,0.4c-2.61-0.02-4.16-2-3.57-4.54
		c0.17-0.75,0.08-1.5,0-2.31c-0.69,0.24-0.93,0.74-1.2,1.25c-2.43,4.71-4.71,9.44-5.42,14.82c-0.46,3.55-0.55,7.06,0.26,10.5
		c1.75,7.49,6.34,13.15,12.16,17.92c0.25,0.2,0.61,0.53,1.19,0.21c0-3.53-0.02-7.14,0-10.74c0.02-3.65-0.09-7.31,0.07-10.88
		c2.57-0.52,3.02-0.18,3.03,2.03c0.01,5.17,0,10.34,0,15.52c0,2.39,0,4.78,0,7.04c2.99,3.09,5.78,6.14,8.91,8.85
		c0.73,1.29,2.12,1.8,3.18,2.84c3.94-0.57,7.3,0.12,8.72,4.43c0.56,0.23,1,0.01,1.51-0.11c3.87-0.86,7.95,1.53,7.63,5.9
		c-0.08,1.15-0.01,2.31-0.01,3.43c3,1.84,5.81,3.77,8.76,5.49c1.2,0.7,2.13,0.67,3.17,0.03c1.77-1.1,3.48-2.3,5.27-3.36
		c2.31-1.36,3.87-2.88,3.47-6.01c-0.32-2.51,2.81-5.95,5.99-5.7c1.06,0.08,2.07,0.83,3.16,0.32c2.33-5.04,4.61-4.81,8.21-4.31
		c1.12-1.38,2.93-2.06,3.93-3.62c2.63-2.37,5.03-4.96,7.53-7.46c1.01-1.01,1.46-2.13,1.45-3.61c-0.07-6.47-0.03-12.94-0.03-19.41
		c0-0.89-0.11-1.81,0.6-2.58c0.69-0.05,1.39-0.14,2.44,0.31c0.12,2.26,0.04,4.69,0.06,7.12c0.01,2.39,0,4.79,0,7.18
		c0,2.44,0,4.88,0,7.32c0.3,0,0.44,0.04,0.54-0.01c0.3-0.12,0.59-0.26,0.88-0.4c2.41-1.24,4.06-3.27,5.81-5.27
		c5.7-6.47,7.11-14.17,6.19-22.33c-0.73-6.42-3.55-12.19-7.02-17.66c-1.97-3.1-4.49-5.75-6.51-8.8c-2.06-3.1-4.5-5.86-7.21-8.44
		c-1.19-1.13-2.7-1.96-3.55-3.2c-0.19-2.11,0.3-4.08-0.67-5.89c-0.64-0.23-1.29-0.11-1.92-0.11c-5.24-0.01-10.48,0-15.72-0.01
		c-1.69-0.01-1.97-0.26-2.37-1.85c0.49-1.17,1.46-1.25,2.57-1.25c6.33,0.03,12.67,0.02,19,0c0.68,0,1.42,0.23,2.02-0.23
		c0-8.28,0-16.52,0-24.83c-0.44-0.03-0.76-0.07-1.07-0.07c-21.91,0-43.83,0-65.74,0C76.85,116.62,76.29,116.44,75.93,116.99z
		 M63.41,272.99c11.32,0,22.63-0.03,33.95,0.03c1.89,0.01,3.03-0.49,3.91-2.31c1.54-3.19,4.32-4.57,7.87-4.29
		c3.14,0.25,5.44,1.85,6.76,4.64c0.74,1.56,1.83,1.93,3.38,1.93c22.76-0.02,45.52-0.02,68.28-0.01c0.78,0,1.53-0.1,2.27-0.36
		c1.88-0.66,2.97-2.21,2.98-4.23c0.01-2.52-0.74-3.49-2.88-4.42c-1.03-0.44-2.01-0.38-3.02-0.38c-22.44-0.01-44.87-0.02-67.31,0
		c-2.15,0-3.68-0.61-4.87-2.67c-2.83-4.89-9.93-4.41-12.19-0.26c-1.19,2.19-2.9,2.96-5.36,2.95c-22.24-0.06-44.49-0.04-66.73-0.03
		c-0.84,0-1.69-0.04-2.52,0.08c-2.64,0.37-4.47,3.4-3.6,5.91c0.77,2.22,2.38,3.39,4.75,3.39C40.52,272.99,51.97,272.99,63.41,272.99
		z M159.71,253.94c6.04-0.4,12.16-0.04,18.48-0.26c-0.66-1.39-0.64-2.61-0.08-3.93c-9.36,0-18.53,0-27.61,0
		c-0.86-0.57-1.41-1.16-1.04-2.13c0.37-0.95,1.18-1.09,2.08-1.04c0.39,0.02,0.78,0,1.16,0c7.76,0,15.53,0,23.29-0.01
		c0.77,0,1.55,0.12,2.34-0.12c0.95-1.85,1.01-4.02,2.08-5.8c-9.68-6.38-30.4-6.21-40.39-1.87c0,1.26-0.16,2.58,0.03,3.84
		c0.48,3.2-3.32,6.12-6.09,6.01c-1.02-0.04-1.94-0.7-3.09-0.37c-0.76,2.89-2.97,4.49-5.7,4.85c-3.01,0.4-4.75-1.94-6.35-4.3
		c-2.9,1.83-5.73,3.62-8.59,5.42c0.2,0.21,0.27,0.38,0.37,0.39c2.79,0.46,4.98,1.98,6.47,4.25c0.86,1.32,1.81,1.58,3.17,1.58
		c19.28-0.02,38.56-0.01,57.83-0.02c0.55,0,1.17,0.22,1.7-0.39c-0.37-1.02-0.75-2.08-1.15-3.2c-5.58,0-11.07,0-16.57,0
		c-0.58,0-1.18,0.01-1.73-0.11c-0.66-0.15-1.1-0.62-1.28-1.19C159.01,254.89,159.38,254.51,159.71,253.94z M56.93,111.97
		c0.3,1.59,1.42,1.54,2.55,1.54c11.51-0.01,23.03,0,34.54,0c21.08,0,42.17,0,63.25-0.01c0.81,0,1.7,0.27,2.41-0.43
		c0.25-0.63,0.21-1.24-0.02-1.83c-0.67-0.67-1.49-0.45-2.24-0.45c-32.53-0.01-65.07-0.01-97.6-0.01c-0.32,0-0.65,0.02-0.97,0
		C57.98,110.73,57.36,111.1,56.93,111.97z M92.07,250.12c3.05-1.32,3.26-1.62,3.26-4.72c0-1.1,0.03-2.2-0.01-3.3
		c-0.08-2.31-1.61-3.58-3.83-3.23c-1.15,0.18-1.66,1.11-2.28,1.79c0,2.52,0,4.91,0,7.23C89.97,248.99,90.86,249.79,92.07,250.12z
		 M131.09,243.62c0.24,0.26,0.41,0.45,0.57,0.64c1,1.14,2.23,1.57,3.65,0.98c1.4-0.59,1.96-1.77,1.94-3.27
		c-0.02-1.49,0.05-2.97-0.02-4.46c-0.1-1.97-1.27-2.97-3.27-2.94c-1.89,0.03-2.83,1.02-2.87,3.09
		C131.07,239.62,131.09,241.55,131.09,243.62z M86.06,240.01c0-0.96,0.02-1.73-0.01-2.5c-0.07-1.73-1.09-2.85-2.65-2.92
		c-2.05-0.09-3.34,0.83-3.46,2.7c-0.12,1.79-0.11,3.61,0,5.4c0.09,1.51,1.34,2.65,2.75,2.77c1.57,0.13,2.48-0.6,3.12-2.22
		C86.26,242.1,85.9,240.96,86.06,240.01z M123.67,249.73c0.34,0,0.66,0,0.98,0c2.01,0,2.88-0.53,3.18-2.53
		c0.31-2.01,0.44-4.09-0.13-6.1c-0.49-1.74-1.11-2.21-2.63-2.23c-1.94-0.03-3.14,1.07-3.23,3.04c-0.06,1.35,0.04,2.71-0.03,4.06
		C121.73,247.51,122.24,248.73,123.67,249.73z"/>
	<path class="st1" d="M77.07,228.73c-3.13-2.71-5.92-5.75-8.91-8.85c0-2.26,0-4.65,0-7.04c0-5.17,0.01-10.34,0-15.52
		c-0.01-2.21-0.46-2.55-3.03-2.03c-0.16,3.57-0.05,7.22-0.07,10.88c-0.02,3.61,0,7.22,0,10.74c-0.58,0.32-0.94-0.01-1.19-0.21
		c-5.83-4.77-10.42-10.42-12.16-17.92c-0.8-3.44-0.72-6.95-0.26-10.5c0.7-5.38,2.98-10.11,5.42-14.82c0.27-0.51,0.51-1.01,1.2-1.25
		c0.07,0.81,0.17,1.56,0,2.31c-0.59,2.54,0.96,4.52,3.57,4.54c1.15,0.01,2.31,0.11,3.4-0.4c1.07-0.5,1.7-1.18,1.68-2.52
		c-0.08-3.85-0.48-7.65-1.18-11.42c-0.39-2.11,0.25-3.94,1.73-5.44c2.12-2.15,3.76-4.77,6.37-6.42c1.39-0.88,1.81-2.28,1.94-3.75
		c0.12-1.42,0.52-2.73,0.94-4.05c0.63-0.38,1.29-0.21,1.92-0.21c5.17-0.01,10.34-0.05,15.51,0.02c1.35,0.02,2.38-0.28,2.98-1.55
		c1.05,0.02,2.13,0.24,3.13-0.31c0.48,1.44,1.46,1.9,2.97,1.87c3.81-0.09,7.63-0.05,11.44-0.02c1.14,0.01,2.06-0.21,2.37-1.48
		c1.25-0.15,2.55,0.3,3.75-0.38c0.39,1.59,0.67,1.84,2.37,1.85c5.24,0.02,10.48,0,15.72,0.01c0.64,0,1.29-0.11,1.92,0.11
		c0.96,1.81,0.47,3.78,0.67,5.89c0.85,1.24,2.36,2.07,3.55,3.2c2.71,2.57,5.15,5.33,7.21,8.44c2.02,3.04,4.55,5.69,6.51,8.8
		c3.46,5.47,6.29,11.23,7.02,17.66c0.92,8.15-0.49,15.86-6.19,22.33c-1.76,1.99-3.41,4.03-5.81,5.27c-0.29,0.15-0.58,0.29-0.88,0.4
		c-0.11,0.04-0.25,0.01-0.54,0.01c0-2.44,0-4.88,0-7.32c0-2.39,0.01-4.79,0-7.18c-0.01-2.43,0.06-4.86-0.06-7.12
		c-1.06-0.45-1.75-0.36-2.44-0.31c-0.72,0.77-0.6,1.69-0.6,2.58c0,6.47-0.04,12.94,0.03,19.41c0.02,1.48-0.43,2.59-1.45,3.61
		c-2.5,2.5-4.91,5.09-7.53,7.46c-0.16-0.2-0.35-0.38-0.47-0.6c-3.09-5.6-7.64-9.7-13.3-12.54c-4.08-2.05-8.43-3.16-13-3.73
		c-3.88-0.49-7.71-0.4-11.5,0.17c-5.79,0.87-11.11,3.09-15.84,6.6C82.11,220.82,78.98,224.28,77.07,228.73z M102.33,186.74
		c-0.07-0.55,0.18-1.01,0.45-1.45c2.37-3.81,3.09-7.86,2.38-12.34c-0.58-3.67-2.09-6.76-4.57-9.37c-5.92-6.22-15.58-7.3-22.93-2.37
		c-4.99,3.34-9.39,12.05-7.27,18.75c1.92,6.04,5.33,10.35,11.21,12.57c2.68,1.02,5.42,1.63,8.45,1.04c3.04-0.6,5.72-1.83,8.37-3.27
		c-0.21,1.37-0.49,2.66-0.07,4.12c1.18,4.09,3.72,7.09,7.01,9.6c3.06,2.33,3.11,2.43,6.06,0.2c2.56-1.94,4.83-4.15,6.27-7.15
		c1.05-2.2,0.92-4.48,1.03-6.77c0.41,0.03,0.69,0.32,1.02,0.51c3.02,1.82,6.25,3.04,9.81,3c2.11-0.02,4.18-0.55,6.17-1.31
		c8.62-3.31,12.89-11.63,10.97-20.37c-1.69-7.7-6.65-12.46-14.78-13.7c-5.81-0.89-10.72,0.77-14.83,4.67
		c-5.98,5.65-7.32,14.71-2.87,22.11c0.3,0.5,0.68,0.94,0.63,1.57C110.67,187.02,106.5,187.16,102.33,186.74z"/>
	<path class="st2" d="M100.04,143.01c-1,0.55-2.07,0.33-3.13,0.31c-0.3-0.48-0.43-1.08-1-1.43c-0.91-0.25-1.88-0.12-2.85-0.12
		c-5.11-0.01-10.21,0-15.32-0.02c-0.61,0-1.31,0.27-1.81-0.35c0-8.14,0-16.27,0-24.41c0.36-0.55,0.92-0.36,1.41-0.36
		c21.91-0.01,43.83-0.01,65.74,0c0.31,0,0.63,0.04,1.07,0.07c0,8.31,0,16.55,0,24.83c-0.6,0.46-1.34,0.23-2.02,0.23
		c-6.33,0.02-12.67,0.03-19,0c-1.1,0-2.07,0.08-2.57,1.25c-1.19,0.69-2.5,0.23-3.75,0.38c-0.06-1.36-0.89-1.64-2.09-1.63
		c-3.98,0.04-7.96,0.06-11.93-0.01C101.6,141.71,100.69,142,100.04,143.01z"/>
	<path class="st3" d="M63.41,272.99c-11.45,0-22.89,0-34.34,0c-2.37,0-3.98-1.17-4.75-3.39c-0.87-2.5,0.95-5.54,3.6-5.91
		c0.83-0.11,1.68-0.08,2.52-0.08c22.24,0,44.49-0.03,66.73,0.03c2.46,0.01,4.17-0.75,5.36-2.95c2.26-4.15,9.36-4.63,12.19,0.26
		c1.19,2.05,2.72,2.67,4.87,2.67c22.44-0.02,44.87-0.01,67.31,0c1.01,0,2-0.06,3.02,0.38c2.15,0.92,2.89,1.89,2.88,4.42
		c0,2.01-1.1,3.57-2.98,4.23c-0.73,0.26-1.48,0.36-2.27,0.36c-22.76-0.01-45.52-0.02-68.28,0.01c-1.55,0-2.65-0.37-3.38-1.93
		c-1.32-2.8-3.62-4.39-6.76-4.64c-3.55-0.28-6.33,1.1-7.87,4.29c-0.88,1.82-2.01,2.32-3.91,2.31
		C86.05,272.95,74.73,272.99,63.41,272.99z"/>
	<path class="st4" d="M77.07,228.73c1.91-4.45,5.04-7.91,8.87-10.75c4.73-3.5,10.05-5.72,15.84-6.6c3.79-0.57,7.61-0.65,11.5-0.17
		c4.57,0.57,8.92,1.68,13,3.73c5.66,2.84,10.21,6.93,13.3,12.54c0.12,0.22,0.31,0.4,0.47,0.6c-1,1.56-2.81,2.23-3.93,3.62
		c-3.6-0.5-5.88-0.72-8.21,4.31c-1.1,0.51-2.11-0.24-3.16-0.32c-3.18-0.25-6.31,3.18-5.99,5.7c0.4,3.13-1.16,4.64-3.47,6.01
		c-1.79,1.06-3.5,2.26-5.27,3.36c-1.04,0.64-1.97,0.67-3.17-0.03c-2.95-1.72-5.76-3.65-8.76-5.49c0-1.12-0.07-2.28,0.01-3.43
		c0.32-4.37-3.76-6.76-7.63-5.9c-0.5,0.11-0.94,0.34-1.51,0.11c-1.42-4.31-4.78-5-8.72-4.43C79.19,230.54,77.8,230.02,77.07,228.73z
		"/>
	<path class="st5" d="M159.71,253.94c-0.33,0.57-0.69,0.94-0.65,1.61c0.18,0.56,0.62,1.04,1.28,1.19c0.56,0.13,1.15,0.11,1.73,0.11
		c5.49,0.01,10.99,0,16.57,0c0.4,1.12,0.78,2.18,1.15,3.2c-0.53,0.61-1.16,0.39-1.7,0.39c-19.28,0.01-38.56,0-57.83,0.02
		c-1.37,0-2.31-0.26-3.17-1.58c-1.49-2.27-3.68-3.8-6.47-4.25c-0.1-0.02-0.18-0.18-0.37-0.39c2.85-1.8,5.68-3.59,8.59-5.42
		c1.6,2.36,3.33,4.69,6.35,4.3c2.73-0.36,4.94-1.96,5.7-4.85c1.15-0.33,2.07,0.33,3.09,0.37c2.77,0.11,6.58-2.81,6.09-6.01
		c-0.19-1.26-0.03-2.58-0.03-3.84c9.99-4.34,30.71-4.51,40.39,1.87c-1.07,1.78-1.13,3.95-2.08,5.8c-0.79,0.24-1.57,0.12-2.34,0.12
		c-7.76,0.01-15.53,0.01-23.29,0.01c-0.39,0-0.78,0.02-1.16,0c-0.9-0.05-1.71,0.09-2.08,1.04c-0.38,0.97,0.18,1.57,1.04,2.13
		c9.08,0,18.25,0,27.61,0c-0.56,1.32-0.58,2.54,0.08,3.93C171.87,253.9,165.74,253.54,159.71,253.94z"/>
	<path class="st5" d="M38.42,246.25c-0.59-1.97-1.18-3.95-1.82-6.05c13.26-6.14,26.58-5.48,40.14-1.75c0,1.44,0.04,2.66-0.01,3.88
		c-0.15,3.47,3.62,7.45,7.83,5.99c0.44-0.15,0.86-0.23,1.52-0.01c0.82,2.63,2.76,4.62,5.59,4.79c2.81,0.17,5.14-1.3,6.27-4.27
		c2.91,1.81,5.74,3.58,8.79,5.48c-1.69,0.58-3.36,0.92-4.56,2.06c-1.19,1.13-2.51,2.21-3.07,3.95c-20.55,0-41.04,0-61.62,0
		c0.02-1.25,0.31-2.37,1.06-3.42c6.31-0.2,12.62,0.15,18.7-0.19c0.66-0.88,0.5-1.52,0.44-2.08c-0.5-0.89-1.31-0.82-2.09-0.82
		c-4.72-0.02-9.44-0.05-14.16-0.07c-0.7,0-1.4,0-2.17,0c-0.28-1.37-0.14-2.63-0.13-3.89c0.75-0.28,1.39-0.17,2.02-0.17
		c7.96-0.01,15.91-0.01,23.87,0c1.29,0,2.47-0.09,2.78-1.69c-0.27-1.48-1.4-1.44-2.53-1.43c-8.02,0.01-16.04,0.01-24.06,0
		c-0.84,0-1.68-0.05-2.52-0.07C38.65,246.37,38.56,246.29,38.42,246.25z"/>
	<path class="st2" d="M56.93,111.97c0.44-0.88,1.05-1.24,1.92-1.19c0.32,0.02,0.65,0,0.97,0c32.53,0,65.07,0,97.6,0.01
		c0.75,0,1.57-0.23,2.24,0.45c0.23,0.58,0.27,1.2,0.02,1.83c-0.71,0.7-1.6,0.43-2.41,0.43c-21.08,0.01-42.17,0.01-63.25,0.01
		c-11.51,0-23.03,0-34.54,0C58.35,113.51,57.23,113.56,56.93,111.97z"/>
	<path class="st6" d="M64.08,122.8c0.89,0.03,1.8-0.12,2.83,0.13c0,10,0,20.02,0,30.22c-0.94,0.49-1.42,1.64-2.12,2.61
		c-0.16-0.61-0.32-1.23-0.47-1.81c2.3-3.24,2.25-4.81-0.24-7.1C64.08,138.83,64.08,130.82,64.08,122.8z"/>
	<path class="st6" d="M75.93,116.99c0,8.14,0,16.27,0,24.41c-0.91,0.7-1.92,0.34-2.99,0.38c0-8.27,0-16.41,0-24.7
		C73.92,116.86,74.93,116.99,75.93,116.99z"/>
	<path class="st2" d="M92.07,250.12c-1.21-0.33-2.1-1.13-2.86-2.23c0-2.33,0-4.72,0-7.23c0.61-0.69,1.12-1.61,2.28-1.79
		c2.23-0.35,3.75,0.92,3.83,3.23c0.04,1.1,0.01,2.2,0.01,3.3C95.33,248.5,95.12,248.8,92.07,250.12z"/>
	<path class="st2" d="M131.09,243.62c0-2.07-0.03-4.01,0.01-5.95c0.03-2.07,0.98-3.06,2.87-3.09c2-0.03,3.17,0.97,3.27,2.94
		c0.08,1.48,0,2.97,0.02,4.46c0.02,1.5-0.54,2.68-1.94,3.27c-1.41,0.59-2.65,0.16-3.65-0.98
		C131.5,244.08,131.33,243.89,131.09,243.62z"/>
	<path class="st2" d="M86.06,240.01c-0.16,0.95,0.2,2.09-0.25,3.24c-0.64,1.61-1.55,2.35-3.12,2.22c-1.42-0.12-2.66-1.26-2.75-2.77
		c-0.11-1.8-0.12-3.61,0-5.4c0.12-1.88,1.41-2.8,3.46-2.7c1.56,0.07,2.58,1.19,2.65,2.92C86.09,238.28,86.06,239.06,86.06,240.01z"
		/>
	<path class="st2" d="M123.67,249.73c-1.44-1-1.94-2.22-1.86-3.77c0.07-1.35-0.03-2.71,0.03-4.06c0.09-1.97,1.3-3.06,3.23-3.04
		c1.52,0.02,2.14,0.5,2.63,2.23c0.56,2.01,0.43,4.09,0.13,6.1c-0.31,2-1.17,2.53-3.18,2.53
		C124.33,249.73,124.01,249.73,123.67,249.73z"/>
	<path class="st6" d="M70.17,151.58c0-2.38,0-4.76,0-7.13c0.83,0.84,1.94,0.28,2.98,0.57c-0.1,1.46-0.92,2.8-0.64,4.36
		C71.72,150.11,70.95,150.85,70.17,151.58z"/>
	<path class="st7" d="M38.42,246.25c0.14,0.03,0.22,0.12,0.27,0.25C38.44,246.59,38.37,246.49,38.42,246.25z"/>
	<path class="st5" d="M114.85,186.76c0.05-0.63-0.33-1.07-0.63-1.57c-4.45-7.39-3.11-16.45,2.87-22.11
		c4.12-3.89,9.03-5.55,14.83-4.67c8.13,1.24,13.09,6.01,14.78,13.7c1.92,8.74-2.35,17.06-10.97,20.37
		c-1.99,0.76-4.06,1.29-6.17,1.31c-3.56,0.04-6.79-1.18-9.81-3c-0.33-0.2-0.61-0.49-1.02-0.51
		C117.87,188.62,117.05,186.93,114.85,186.76z M129.28,165.88c-5.65-0.68-10.2,5.22-10.26,9.84c-0.06,5.54,5.03,10.65,10.21,10.38
		c5.94-0.31,10.15-4.3,10.31-10.05C139.71,170.44,135.14,165.55,129.28,165.88z"/>
	<path class="st5" d="M98.43,190.29c-2.65,1.44-5.33,2.67-8.37,3.27c-3.03,0.6-5.77-0.02-8.45-1.04c-5.88-2.23-9.3-6.53-11.21-12.57
		c-2.12-6.7,2.28-15.41,7.27-18.75c7.35-4.92,17.02-3.85,22.93,2.37c2.48,2.61,3.99,5.7,4.57,9.37c0.7,4.48-0.02,8.53-2.38,12.34
		c-0.27,0.44-0.52,0.9-0.45,1.45C99.95,186.74,99.02,188.32,98.43,190.29z M77.54,175.74c-0.52,5.45,5.14,10.66,10.39,10.39
		c5.76-0.29,9.79-4.67,9.79-11.27c-0.01-5.2-4.61-8.88-10.89-9.03C82.36,165.73,77.1,170.58,77.54,175.74z"/>
	<path class="st0" d="M98.43,190.29c0.59-1.96,1.52-3.55,3.89-3.55c4.17,0.42,8.35,0.28,12.52,0.02c2.2,0.17,3.03,1.86,3.88,3.52
		c-0.11,2.29,0.03,4.57-1.03,6.77c-1.44,3-3.71,5.22-6.27,7.15c-2.95,2.23-3,2.13-6.06-0.2c-3.29-2.51-5.83-5.51-7.01-9.6
		C97.94,192.95,98.23,191.66,98.43,190.29z M108.58,202.46c2.39-1.73,4.37-3.54,5.88-5.8c1.38-2.06,1.37-4.29,0.8-6.64
		c-4.53,0-8.89,0-13.1,0c-1.1,1.1-1.23,2.37-0.86,3.54C102.53,197.44,105.14,200.24,108.58,202.46z"/>
	<path class="st0" d="M100.04,143.01c0.65-1.01,1.55-1.3,2.75-1.28c3.98,0.07,7.95,0.05,11.93,0.01c1.19-0.01,2.03,0.27,2.09,1.63
		c-0.31,1.27-1.23,1.49-2.37,1.48c-3.81-0.03-7.63-0.07-11.44,0.02C101.5,144.91,100.52,144.44,100.04,143.01z"/>
	<path class="st0" d="M129.28,165.88c5.85-0.33,10.43,4.56,10.26,10.16c-0.17,5.76-4.37,9.75-10.31,10.05
		c-5.18,0.27-10.27-4.84-10.21-10.38C119.08,171.1,123.63,165.2,129.28,165.88z"/>
	<path class="st0" d="M77.54,175.74c-0.44-5.16,4.82-10.01,9.28-9.9c6.28,0.15,10.88,3.83,10.89,9.03
		c0.01,6.59-4.02,10.98-9.79,11.27C82.68,186.4,77.02,181.19,77.54,175.74z"/>
	<path class="st3" d="M108.58,202.46c-3.44-2.23-6.05-5.02-7.28-8.91c-0.37-1.16-0.24-2.44,0.86-3.54c4.21,0,8.57,0,13.1,0
		c0.56,2.36,0.57,4.58-0.8,6.64C112.95,198.93,110.98,200.74,108.58,202.46z"/>
</g>
<g>
	<path class="st0" d="M324.44,254.95c2.58-1.63,7.74-4.46,10.37-6.12c1.6,2.36,3.33,4.69,6.35,4.3c2.73-0.36,4.94-1.96,5.7-4.85
		c1.15-0.33,2.07,0.33,3.09,0.37c2.87,0.11,6.85-3.03,6.03-6.36c-0.26-1.05-0.16-2.13,0.02-3.2c0.02-0.14,0.02-0.27,0-0.41
		l-0.81-4.62c-0.06-0.37,0.04-0.75,0.3-1.02c1.42-1.53,3.04-2.91,4.65-4.3c2.18-1.88,4.08-4.04,5.92-6.26
		c1.04-1.25,2.25-2.09,3.71-2.68c3.83-1.54,6.5-4.52,8.88-7.7c2.52-3.37,4.67-7,5.46-11.24c0.63-3.43,1.11-6.79,0.74-10.38
		c-0.98-9.45-5.04-17.45-10.63-24.86c-1.61-2.13-3.21-4.27-4.83-6.4c-0.17-0.23-0.16-0.48-0.18-0.73c-1.22-0.74-1.68-2.17-2.74-3.06
		c-1.79-2.27-3.99-4.13-6.12-5.95c-0.22-1.51,0.21-2.96-0.57-4.18c0.25-0.21,0.34-0.36,0.45-0.36c2.91-0.21,3.17-0.49,3.17-3.5
		c0-7.56,0-15.13,0.01-22.69c0-0.63-0.12-1.28,0.21-2.13c1.38,0,2.85,0,4.31,0c1.81,0,3.63-0.12,5.43,0.03
		c2.04,0.16,3.62-0.42,4.85-1.77c0.51-0.57,0.75-1.34,0.71-2.11c-0.01-0.23-0.01-0.46,0.01-0.68c0.21-2.05-0.92-3.21-2.59-4.02
		c-0.83-0.4-1.74-0.39-2.65-0.39c-32.78,0.01-65.55,0-98.33,0.01c-0.65,0-1.3-0.02-1.93,0.09c-1.95,0.34-3.39,2.01-3.6,3.89
		c-0.21,1.88,1.17,4.3,3.03,4.82c1.02,0.29,2.08,0.62,3.19,0.52c0.39-0.07,0.79-0.08,0.8,0.45c0.01,0.74-0.04,1.48-0.07,2.22
		c0.03,0.45,0.09,0.9,0.09,1.35c0.01,8.47,0.01,16.94,0.01,25.42c0,0.19-0.07,0.37-0.1,0.54c-2.9,1.99-2.97,3.51-0.46,6.66
		c-0.22,1.93-0.57,3.75-0.61,5.57c-0.03,1.54-0.66,3-0.46,4.57c0.05,0.42-0.33,0.95-0.63,1.35c-1.84,2.43-3.49,4.96-4.96,7.65
		c-3.55,6.5-5.84,13.28-5.68,20.82c0.09,3.96,0.93,7.71,2.49,11.28c2.4,5.47,6.12,9.95,10.78,13.7l6.6,5.9
		c3.33,2.96,6.23,6.35,9.7,9.12c0.21,0.17,0.24,0.47,0.08,0.67c-0.07,0.09-0.14,0.18-0.21,0.26c-0.36,0.45-0.56,1-0.58,1.57
		l-0.08,2.34c0,1.44,0.04,2.66-0.01,3.88c-0.15,3.47,3.62,7.45,7.83,5.99c0.44-0.15,0.86-0.23,1.52-0.01
		c0.82,2.63,2.76,4.62,5.59,4.79c2.81,0.17,5.14-1.3,6.27-4.27L324.44,254.95z M302.06,240.01c-0.16,0.95,0.2,2.09-0.25,3.24
		c-0.64,1.61-1.55,2.35-3.12,2.22c-1.42-0.12-2.66-1.26-2.75-2.77c-0.11-1.8-0.12-3.61,0-5.4c0.12-1.88,1.41-2.8,3.46-2.7
		c1.56,0.07,2.58,1.19,2.65,2.92C302.09,238.28,302.06,239.06,302.06,240.01z M311.33,245.4c0,3.1-0.21,3.4-3.26,4.72
		c-1.21-0.33-2.1-1.13-2.86-2.23v-7.23c0.61-0.69,1.12-1.61,2.28-1.79c2.23-0.35,3.75,0.92,3.83,3.23
		C311.36,243.2,311.33,244.3,311.33,245.4z M343.83,247.2c-0.31,2-1.17,2.53-3.18,2.53c-0.32,0-0.64,0-0.98,0
		c-1.44-1-1.94-2.22-1.86-3.77c0.07-1.35-0.03-2.71,0.03-4.06c0.09-1.97,1.3-3.06,3.23-3.04c1.52,0.02,2.14,0.5,2.63,2.23
		C344.27,243.11,344.14,245.19,343.83,247.2z M353.26,241.98c0.02,1.5-0.54,2.68-1.94,3.27c-1.41,0.59-2.65,0.16-3.65-0.98
		c-0.17-0.19-0.34-0.38-0.57-0.64c0-2.07-0.03-4.01,0.01-5.95c0.03-2.07,0.98-3.06,2.87-3.09c2-0.03,3.17,0.97,3.27,2.94
		C353.31,239.01,353.24,240.5,353.26,241.98z M275.48,113.51c-1.13,0-2.25,0.05-2.55-1.54c0.44-0.88,1.05-1.24,1.92-1.19
		c0.32,0.02,0.65,0,0.97,0c32.53,0,65.07,0,97.6,0.01c0.75,0,1.57-0.23,2.24,0.45c0.23,0.58,0.27,1.2,0.02,1.83
		c-0.71,0.7-1.6,0.43-2.41,0.43c-21.08,0.01-42.17,0.01-63.25,0.01C298.51,113.51,286.99,113.5,275.48,113.51z M288.51,149.37
		c-0.79,0.74-1.56,1.48-2.34,2.21c-1.57,1.65-3.14,3.3-4.7,4.95c-0.68,0.12-0.82-0.2-0.69-0.76c-0.16-0.61-0.32-1.23-0.47-1.81
		c2.3-3.24,2.25-4.81-0.24-7.1v-30.1h5.44c0.45,0.65,0.22,1.38,0.23,2.06c0.02,7.81,0.01,15.63,0.02,23.44
		c0,0.75-0.19,1.56,0.41,2.2c0.83,0.84,1.94,0.28,2.98,0.57C289.05,146.47,288.23,147.81,288.51,149.37z M267.44,188.3
		c0.7-5.38,2.98-10.11,5.42-14.82c0.27-0.51,0.51-1.01,1.2-1.25c0.07,0.81,0.17,1.56,0,2.31c-0.59,2.54,0.96,4.52,3.57,4.54
		c1.15,0.01,2.31,0.11,3.4-0.4c1.07-0.5,1.7-1.18,1.68-2.52c-0.08-3.85-0.48-7.65-1.18-11.42c-0.39-2.11,0.25-3.94,1.73-5.44
		c2.12-2.15,3.76-4.77,6.37-6.42c1.39-0.88,1.81-2.28,1.94-3.75c0.12-1.42,0.52-2.73,0.93-4.05c0.63-0.38,1.29-0.21,1.92-0.21
		c5.17-0.01,10.34-0.05,15.51,0.02c1.35,0.02,2.38-0.28,2.98-1.55c-0.3-0.48-0.43-1.08-1-1.43c-0.91-0.25-1.88-0.12-2.85-0.12
		c-5.11-0.01-10.21,0-15.32-0.02c-0.61,0-1.31,0.27-1.81-0.35c-0.91,0.7-1.92,0.34-2.99,0.38v-24.7c0.97-0.22,1.98-0.09,2.99-0.09
		c0.36-0.55,0.92-0.36,1.41-0.36c21.91-0.01,43.83-0.01,65.74,0c0.31,0,0.63,0.04,1.07,0.07v24.83c-0.6,0.46-1.34,0.23-2.02,0.23
		c-6.33,0.02-12.67,0.03-19,0c-1.1,0-2.07,0.08-2.57,1.25c0.39,1.59,0.67,1.84,2.37,1.85c5.24,0.02,10.48,0,15.72,0.01
		c0.64,0,1.29-0.11,1.92,0.11c0.96,1.81,0.47,3.78,0.67,5.89c0.85,1.24,2.36,2.07,3.55,3.2c2.71,2.57,5.15,5.33,7.21,8.44
		c2.02,3.04,4.55,5.69,6.51,8.8c3.46,5.47,6.29,11.23,7.02,17.66c0.92,8.15-0.49,15.86-6.19,22.33c-1.76,1.99-3.41,4.03-5.81,5.27
		c-0.29,0.15-0.58,0.29-0.88,0.4c-0.11,0.04-0.25,0.01-0.54,0.01v-7.32c0-2.39,0.01-4.79,0-7.18c-0.01-2.43,0.06-4.86-0.06-7.12
		c-1.06-0.45-1.75-0.36-2.44-0.31c-0.72,0.77-0.6,1.69-0.6,2.58c0,6.47-0.04,12.94,0.03,19.41c0.02,1.48-0.43,2.59-1.45,3.61
		c-2.5,2.5-4.91,5.09-7.53,7.46c-1,1.56-2.81,2.23-3.93,3.62c-3.6-0.5-5.88-0.72-8.21,4.31c-1.1,0.51-2.11-0.24-3.16-0.32
		c-3.18-0.25-6.31,3.18-5.99,5.7c0.4,3.13-1.16,4.64-3.47,6.01c-1.79,1.06-3.5,2.26-5.27,3.36c-1.04,0.64-1.97,0.67-3.17-0.03
		c-2.95-1.72-5.76-3.65-8.76-5.49c0-1.12-0.07-2.28,0.01-3.43c0.32-4.37-3.76-6.76-7.63-5.9c-0.5,0.11-0.94,0.34-1.51,0.11
		c-1.42-4.31-4.78-5-8.72-4.43c-1.06-1.04-2.45-1.55-3.18-2.84c-3.13-2.71-5.92-5.75-8.91-8.85v-7.04c0-5.17,0.01-10.34,0-15.52
		c-0.01-2.21-0.46-2.55-3.03-2.03c-0.16,3.57-0.05,7.22-0.07,10.88c-0.02,3.61,0,7.22,0,10.74c-0.58,0.32-0.94-0.01-1.19-0.21
		c-5.83-4.77-10.42-10.42-12.16-17.92C266.9,195.36,266.98,191.84,267.44,188.3z"/>
	<path class="st1" d="M293.07,228.73c-3.13-2.71-5.92-5.75-8.91-8.85c0-2.26,0-4.65,0-7.04c0-5.17,0.01-10.34,0-15.52
		c-0.01-2.21-0.46-2.55-3.03-2.03c-0.16,3.57-0.05,7.22-0.07,10.88c-0.02,3.61,0,7.22,0,10.74c-0.58,0.32-0.94-0.01-1.19-0.21
		c-5.83-4.77-10.42-10.42-12.16-17.92c-0.8-3.44-0.72-6.95-0.26-10.5c0.7-5.38,2.98-10.11,5.42-14.82c0.27-0.51,0.51-1.01,1.2-1.25
		c0.07,0.81,0.17,1.56,0,2.31c-0.59,2.54,0.96,4.52,3.57,4.54c1.15,0.01,2.31,0.11,3.4-0.4c1.07-0.5,1.7-1.18,1.68-2.52
		c-0.08-3.85-0.48-7.65-1.18-11.42c-0.39-2.11,0.25-3.94,1.73-5.44c2.12-2.15,3.76-4.77,6.37-6.42c1.39-0.88,1.81-2.28,1.94-3.75
		c0.12-1.42,0.52-2.73,0.94-4.05c0.63-0.38,1.29-0.21,1.92-0.21c5.17-0.01,10.34-0.05,15.51,0.02c1.35,0.02,2.38-0.28,2.98-1.55
		c1.05,0.02,2.13,0.24,3.13-0.31c0.48,1.44,1.46,1.9,2.97,1.87c3.81-0.09,7.63-0.05,11.44-0.02c1.14,0.01,2.06-0.21,2.37-1.48
		c1.25-0.15,2.55,0.3,3.75-0.38c0.39,1.59,0.67,1.84,2.37,1.85c5.24,0.02,10.48,0,15.72,0.01c0.64,0,1.29-0.11,1.92,0.11
		c0.96,1.81,0.47,3.78,0.67,5.89c0.85,1.24,2.36,2.07,3.55,3.2c2.71,2.57,5.15,5.33,7.21,8.44c2.02,3.04,4.55,5.69,6.51,8.8
		c3.46,5.47,6.29,11.23,7.02,17.66c0.92,8.15-0.49,15.86-6.19,22.33c-1.76,1.99-3.41,4.03-5.81,5.27c-0.29,0.15-0.58,0.29-0.88,0.4
		c-0.11,0.04-0.25,0.01-0.54,0.01c0-2.44,0-4.88,0-7.32c0-2.39,0.01-4.79,0-7.18c-0.01-2.43,0.06-4.86-0.06-7.12
		c-1.06-0.45-1.75-0.36-2.44-0.31c-0.72,0.77-0.6,1.69-0.6,2.58c0,6.47-0.04,12.94,0.03,19.41c0.02,1.48-0.43,2.59-1.45,3.61
		c-2.5,2.5-4.91,5.09-7.53,7.46c-0.16-0.2-0.35-0.38-0.47-0.6c-3.09-5.6-7.64-9.7-13.3-12.54c-4.08-2.05-8.43-3.16-13-3.73
		c-3.88-0.49-7.71-0.4-11.5,0.17c-5.79,0.87-11.11,3.09-15.84,6.6C298.11,220.82,294.98,224.28,293.07,228.73z M318.33,186.74
		c-0.07-0.55,0.18-1.01,0.45-1.45c2.37-3.81,3.09-7.86,2.38-12.34c-0.58-3.67-2.09-6.76-4.57-9.37c-5.92-6.22-15.58-7.3-22.93-2.37
		c-4.99,3.34-9.39,12.05-7.27,18.75c1.92,6.04,5.33,10.35,11.21,12.57c2.68,1.02,5.42,1.63,8.45,1.04c3.04-0.6,5.72-1.83,8.37-3.27
		c-0.21,1.37-0.49,2.66-0.07,4.12c1.18,4.09,3.72,7.09,7.01,9.6c3.06,2.33,3.11,2.43,6.06,0.2c2.56-1.94,4.83-4.15,6.27-7.15
		c1.05-2.2,0.92-4.48,1.03-6.77c0.41,0.03,0.69,0.32,1.02,0.51c3.02,1.82,6.25,3.04,9.81,3c2.11-0.02,4.18-0.55,6.17-1.31
		c8.62-3.31,12.89-11.63,10.97-20.37c-1.69-7.7-6.65-12.46-14.78-13.7c-5.81-0.89-10.72,0.77-14.83,4.67
		c-5.98,5.65-7.32,14.71-2.87,22.11c0.3,0.5,0.68,0.94,0.63,1.57C326.67,187.02,322.5,187.16,318.33,186.74z"/>
	<path class="st2" d="M316.04,143.01c-1,0.55-2.07,0.33-3.13,0.31c-0.3-0.48-0.43-1.08-1-1.43c-0.91-0.25-1.88-0.12-2.85-0.12
		c-5.11-0.01-10.21,0-15.32-0.02c-0.61,0-4.92,0.27-5.42-0.35c0-8.14,0-16.27,0-24.41c0.36-0.55,4.54-0.36,5.03-0.36
		c21.91-0.01,43.83-0.01,65.74,0c0.31,0,0.63,0.04,1.07,0.07c0,8.31,0,16.55,0,24.83c-0.6,0.46-1.34,0.23-2.02,0.23
		c-6.33,0.02-12.67,0.03-19,0c-1.1,0-2.07,0.08-2.57,1.25c-1.19,0.69-2.5,0.23-3.75,0.38c-0.06-1.36-0.89-1.64-2.09-1.63
		c-3.98,0.04-7.96,0.06-11.93-0.01C317.6,141.71,316.69,142,316.04,143.01z"/>
	<path class="st4" d="M293.07,228.73c1.91-4.45,5.04-7.91,8.87-10.75c4.73-3.5,10.05-5.72,15.84-6.6c3.79-0.57,7.61-0.65,11.5-0.17
		c4.57,0.57,8.92,1.68,13,3.73c5.66,2.84,10.21,6.93,13.3,12.54c0.12,0.22,0.31,0.4,0.47,0.6c-1,1.56-2.81,2.23-3.93,3.62
		c-3.6-0.5-5.88-0.72-8.21,4.31c-1.1,0.51-2.11-0.24-3.16-0.32c-3.18-0.25-6.31,3.18-5.99,5.7c0.4,3.13-1.16,4.64-3.47,6.01
		c-1.79,1.06-3.5,2.26-5.27,3.36c-1.04,0.64-1.97,0.67-3.17-0.03c-2.95-1.72-5.76-3.65-8.76-5.49c0-1.12-0.07-2.28,0.01-3.43
		c0.32-4.37-3.76-6.76-7.63-5.9c-0.5,0.11-0.94,0.34-1.51,0.11c-1.42-4.31-4.78-5-8.72-4.43
		C295.19,230.54,293.8,230.02,293.07,228.73z"/>
	<path class="st2" d="M272.93,111.97c0.44-0.88,1.05-1.24,1.92-1.19c0.32,0.02,0.65,0,0.97,0c32.53,0,65.07,0,97.6,0.01
		c0.75,0,1.57-0.23,2.24,0.45c0.23,0.58,0.27,1.2,0.02,1.83c-0.71,0.7-1.6,0.43-2.41,0.43c-21.08,0.01-42.17,0.01-63.25,0.01
		c-11.51,0-23.03,0-34.54,0C274.35,113.51,273.23,113.56,272.93,111.97z"/>
	<path class="st6" d="M280.08,122.8c0.89,0.03,1.8-0.12,2.83,0.13c0,10,0,20.02,0,30.22c-0.94,0.49-1.42,1.64-2.12,2.61
		c-0.16-0.61-0.32-1.23-0.47-1.81c2.3-3.24,2.25-4.81-0.24-7.1C280.08,138.83,280.08,130.82,280.08,122.8z"/>
	<path class="st2" d="M308.07,250.12c-1.21-0.33-2.1-1.13-2.86-2.23c0-2.33,0-4.72,0-7.23c0.61-0.69,1.12-1.61,2.28-1.79
		c2.23-0.35,3.75,0.92,3.83,3.23c0.04,1.1,0.01,2.2,0.01,3.3C311.33,248.5,311.12,248.8,308.07,250.12z"/>
	<path class="st2" d="M347.09,243.62c0-2.07-0.03-4.01,0.01-5.95c0.03-2.07,0.98-3.06,2.87-3.09c2-0.03,3.17,0.97,3.27,2.94
		c0.08,1.48,0,2.97,0.02,4.46c0.02,1.5-0.54,2.68-1.94,3.27c-1.41,0.59-2.65,0.16-3.65-0.98
		C347.5,244.08,347.33,243.89,347.09,243.62z"/>
	<path class="st2" d="M302.06,240.01c-0.16,0.95,0.2,2.09-0.25,3.24c-0.64,1.61-1.55,2.35-3.12,2.22c-1.42-0.12-2.66-1.26-2.75-2.77
		c-0.11-1.8-0.12-3.61,0-5.4c0.12-1.88,1.41-2.8,3.46-2.7c1.56,0.07,2.58,1.19,2.65,2.92C302.09,238.28,302.06,239.06,302.06,240.01
		z"/>
	<path class="st2" d="M339.67,249.73c-1.44-1-1.94-2.22-1.86-3.77c0.07-1.35-0.03-2.71,0.03-4.06c0.09-1.97,1.3-3.06,3.23-3.04
		c1.52,0.02,2.14,0.5,2.63,2.23c0.56,2.01,0.43,4.09,0.13,6.1c-0.31,2-1.17,2.53-3.18,2.53
		C340.33,249.73,340.01,249.73,339.67,249.73z"/>
	<path class="st6" d="M286.17,151.58c0-2.38,0-4.76,0-7.13c0.83,0.84,1.94,0.28,2.98,0.57c-0.1,1.46-0.92,2.8-0.64,4.36
		C287.72,150.11,286.95,150.85,286.17,151.58z"/>
	<path class="st5" d="M330.85,186.76c0.05-0.63-0.33-1.07-0.63-1.57c-4.45-7.39-3.11-16.45,2.87-22.11
		c4.12-3.89,9.03-5.55,14.83-4.67c8.13,1.24,13.09,6.01,14.78,13.7c1.92,8.74-2.35,17.06-10.97,20.37
		c-1.99,0.76-4.06,1.29-6.17,1.31c-3.56,0.04-6.79-1.18-9.81-3c-0.33-0.2-0.61-0.49-1.02-0.51
		C333.87,188.62,333.05,186.93,330.85,186.76z M345.28,165.88c-5.65-0.68-10.2,5.22-10.26,9.84c-0.06,5.54,5.03,10.65,10.21,10.38
		c5.94-0.31,10.15-4.3,10.31-10.05C355.71,170.44,351.14,165.55,345.28,165.88z"/>
	<path class="st5" d="M314.43,190.29c-2.65,1.44-5.33,2.67-8.37,3.27c-3.03,0.6-5.77-0.02-8.45-1.04
		c-5.88-2.23-9.3-6.53-11.21-12.57c-2.12-6.7,2.28-15.41,7.27-18.75c7.35-4.92,17.02-3.85,22.93,2.37c2.48,2.61,3.99,5.7,4.57,9.37
		c0.7,4.48-0.02,8.53-2.38,12.34c-0.27,0.44-0.52,0.9-0.45,1.45C315.95,186.74,315.02,188.32,314.43,190.29z M293.54,175.74
		c-0.52,5.45,5.14,10.66,10.39,10.39c5.76-0.29,9.79-4.67,9.79-11.27c-0.01-5.2-4.61-8.88-10.89-9.03
		C298.36,165.73,293.1,170.58,293.54,175.74z"/>
	<path class="st0" d="M314.43,190.29c0.59-1.96,1.52-3.55,3.89-3.55c4.17,0.42,8.35,0.28,12.52,0.02c2.2,0.17,3.03,1.86,3.88,3.52
		c-0.11,2.29,0.03,4.57-1.03,6.77c-1.44,3-3.71,5.22-6.27,7.15c-2.95,2.23-3,2.13-6.06-0.2c-3.29-2.51-5.83-5.51-7.01-9.6
		C313.94,192.95,314.23,191.66,314.43,190.29z M324.58,202.46c2.39-1.73,4.37-3.54,5.88-5.8c1.38-2.06,1.37-4.29,0.8-6.64
		c-4.53,0-8.89,0-13.1,0c-1.1,1.1-1.23,2.37-0.86,3.54C318.53,197.44,321.14,200.24,324.58,202.46z"/>
	<path class="st0" d="M316.04,143.01c0.65-1.01,1.55-1.3,2.75-1.28c3.98,0.07,7.95,0.05,11.93,0.01c1.19-0.01,2.03,0.27,2.09,1.63
		c-0.31,1.27-1.23,1.49-2.37,1.48c-3.81-0.03-7.63-0.07-11.44,0.02C317.5,144.91,316.52,144.44,316.04,143.01z"/>
	<path class="st0" d="M345.28,165.88c5.85-0.33,10.43,4.56,10.26,10.16c-0.17,5.76-4.37,9.75-10.31,10.05
		c-5.18,0.27-10.27-4.84-10.21-10.38C335.08,171.1,339.63,165.2,345.28,165.88z"/>
	<path class="st0" d="M293.54,175.74c-0.44-5.16,4.82-10.01,9.28-9.9c6.28,0.15,10.88,3.83,10.89,9.03
		c0.01,6.59-4.02,10.98-9.79,11.27C298.68,186.4,293.02,181.19,293.54,175.74z"/>
	<path class="st3" d="M324.58,202.46c-3.44-2.23-6.05-5.02-7.28-8.91c-0.37-1.16-0.24-2.44,0.86-3.54c4.21,0,8.57,0,13.1,0
		c0.56,2.36,0.57,4.58-0.8,6.64C328.95,198.93,326.98,200.74,324.58,202.46z"/>
</g>
</svg>
