<svg width="29" height="32" viewBox="0 0 29 32" fill="none" xmlns="http://www.w3.org/2000/svg">
<path d="M5.05012 0.177965C4.49522 0.465382 4.26093 0.927748 4.25476 1.74001V2.12115L3.04014 2.14614C1.97349 2.16489 1.7762 2.18988 1.49258 2.30235C0.851358 2.56477 0.321117 3.10837 0.111487 3.71444C0.0128379 4.0206 0.00667229 4.72665 0.000506705 17.0418C0.000506705 31.3939 -0.0303212 30.3567 0.388939 30.9815C0.66639 31.3877 1.12264 31.7251 1.59739 31.875C1.97966 32 2.19546 32 14.1814 32C26.1673 32 26.383 32 26.7653 31.875C27.2401 31.7251 27.6963 31.3877 27.9738 30.9815C28.393 30.3567 28.3622 31.3939 28.3622 17.0668C28.3622 2.61476 28.3992 3.75818 27.9306 3.12086C27.6655 2.76472 27.1414 2.37108 26.7715 2.25237C26.642 2.20863 26.0131 2.16489 25.3287 2.15239L24.1079 2.12115V1.74001C24.1079 1.52757 24.0771 1.24016 24.0463 1.10895C23.8058 0.0592499 22.3754 -0.365627 21.5677 0.37166C21.204 0.702814 21.0868 0.996479 21.0868 1.61505V2.13365H14.1814H7.2759V1.61505C7.2759 0.996479 7.15875 0.702814 6.79498 0.37166C6.34489 -0.0407219 5.62969 -0.1157 5.05012 0.177965ZM6.19075 1.07771C6.33873 1.19642 6.35106 1.24016 6.35106 1.67128V2.13365H5.76533H5.1796V1.75876C5.1796 1.37762 5.29058 1.04646 5.43855 0.990231C5.64202 0.909004 6.03045 0.952742 6.19075 1.07771ZM22.9427 1.02772C23.1153 1.15893 23.1831 1.36512 23.1831 1.75251V2.13365H22.5974H22.0116V1.67128C22.0116 1.24016 22.024 1.19642 22.172 1.07771C22.3569 0.927748 22.7823 0.902756 22.9427 1.02772ZM4.26709 3.95812C4.28559 4.7329 4.30409 4.8891 4.42123 5.11404C4.66169 5.56391 5.1611 5.88256 5.63585 5.88256C5.87631 5.88256 6.01812 5.78884 6.0921 5.5764C6.20309 5.25774 6.02428 5.05155 5.51871 4.9016C5.24125 4.82037 5.1796 4.63293 5.1796 3.80192V3.07088H13.1332H21.0868V3.92688C21.0868 4.62668 21.1115 4.83287 21.204 5.03906C21.5184 5.73261 22.4001 6.11375 22.7823 5.72636C22.8687 5.64513 22.9365 5.50142 22.9365 5.41395C22.9365 5.20776 22.6837 4.94534 22.4864 4.94534C22.4062 4.94534 22.2644 4.8891 22.172 4.81412C22.0116 4.68916 22.0116 4.67666 22.0116 3.87689V3.07088H24.0833C25.3842 3.07088 26.2474 3.09587 26.42 3.13961C26.7591 3.22708 27.1722 3.57698 27.3202 3.90813C27.425 4.13932 27.4374 4.36425 27.4374 6.48864V8.81921L17.5046 8.83171L7.57185 8.85045L7.42387 9.0254C7.24507 9.23784 7.2389 9.3753 7.40537 9.59399L7.52869 9.75644H17.4861H27.4374V15.9734C27.4374 22.7464 27.4559 22.3528 27.0859 22.6964C26.7838 22.9776 26.6112 23.0026 24.7183 23.0026C23.0536 23.0026 22.918 23.0089 22.585 23.1338C22.1658 23.2963 21.7342 23.7087 21.5184 24.1585C21.3704 24.4647 21.3643 24.5084 21.3334 26.4704C21.3149 27.8699 21.2779 28.5073 21.2286 28.601C21.0991 28.8259 20.7292 29.1196 20.5196 29.1571C20.4086 29.1758 16.1667 29.1821 11.0986 29.1758L1.88101 29.1571L1.58506 28.9821C1.3816 28.8634 1.23979 28.7072 1.11031 28.4823L0.925345 28.1574V18.9538V9.75644H3.51489C6.02428 9.75644 6.1106 9.75019 6.22775 9.63148C6.38189 9.47527 6.38805 9.18786 6.23391 9.00041L6.11677 8.85045L3.52106 8.83171L0.925345 8.81297V6.48864C0.925345 4.36425 0.937676 4.13932 1.04249 3.90813C1.1843 3.59573 1.59739 3.22708 1.89951 3.14586C2.02898 3.10837 2.60238 3.08337 3.18811 3.07713L4.24243 3.07088L4.26709 3.95812ZM26.8208 23.8961C26.8208 23.9023 25.785 24.9583 24.5272 26.2392L22.2274 28.5635L22.2583 26.6078C22.3014 23.8149 22.1411 23.9836 24.7862 23.9398C25.785 23.9211 26.6543 23.8961 26.716 23.8898C26.7715 23.8836 26.8208 23.8836 26.8208 23.8961ZM27.2647 30.338C27.1414 30.5504 26.9873 30.7191 26.79 30.8441L26.494 31.0315L14.243 31.0503L1.99199 31.0628L1.65905 30.8878C1.40009 30.7566 1.28295 30.6379 1.12881 30.3755C1.01783 30.188 0.925345 29.9568 0.925345 29.8569V29.6757L1.12881 29.8006C1.67138 30.1443 1.1843 30.1318 11.8138 30.113L21.6109 30.0943L22.0116 29.8944C22.3631 29.7194 22.7207 29.382 24.9095 27.1577L27.4065 24.6271L27.425 27.3201L27.4374 30.0193L27.2647 30.338Z" fill="white"/>
<path d="M3.48456 11.6863C3.18861 11.7613 3.02214 11.8738 2.89882 12.0862C2.78784 12.2674 2.77551 12.4111 2.77551 13.692C2.77551 15.2415 2.79401 15.3103 3.18244 15.5727C3.34275 15.6789 3.49072 15.6914 4.7485 15.6914C6.03094 15.6914 6.14809 15.6789 6.33922 15.5664C6.72149 15.329 6.78314 15.0728 6.78314 13.692C6.78314 12.5486 6.77698 12.4486 6.6475 12.1924C6.40088 11.7051 6.26523 11.6613 4.87181 11.6488C4.21209 11.6426 3.58937 11.6613 3.48456 11.6863ZM5.84597 13.6732L5.85831 14.7542H4.77933H3.70035V13.6607V12.5673L4.767 12.5798L5.82748 12.5986L5.84597 13.6732Z" fill="white"/>
<path d="M9.77276 11.6863C9.47681 11.7613 9.31034 11.8737 9.18703 12.0862C9.07605 12.2674 9.06372 12.4111 9.06372 13.6795C9.06372 15.2228 9.08838 15.3415 9.45215 15.5664C9.63095 15.6789 9.7666 15.6914 11.0367 15.6914C13.0714 15.6914 13.0405 15.7226 13.0405 13.692C13.0405 12.4548 13.0282 12.3299 12.9172 12.1299C12.6706 11.705 12.5103 11.6613 11.16 11.6488C10.5003 11.6426 9.87758 11.6613 9.77276 11.6863ZM12.1342 13.6732L12.1465 14.7541H11.0675H9.98856V13.6607V12.5673L11.0552 12.5798L12.1157 12.5985L12.1342 13.6732Z" fill="white"/>
<path d="M16.0496 11.6862C15.7598 11.7611 15.5563 11.9111 15.433 12.1485C15.3344 12.3235 15.322 12.5234 15.322 13.6918C15.322 15.7225 15.2912 15.6913 17.3259 15.6913C19.3605 15.6913 19.2989 15.7475 19.2989 13.6793C19.2989 11.6549 19.3112 11.6674 17.4492 11.6487C16.7895 11.6424 16.1544 11.6612 16.0496 11.6862ZM18.374 13.6606V14.754H17.295H16.2161V13.7043C16.2161 13.1233 16.2346 12.6296 16.2592 12.6109C16.2777 12.5859 16.7648 12.5672 17.3382 12.5672H18.374V13.6606Z" fill="white"/>
<path d="M22.3378 11.6863C22.048 11.7613 21.8445 11.9112 21.7212 12.1487C21.6226 12.3236 21.6103 12.5235 21.6103 13.692C21.6103 15.7226 21.5794 15.6914 23.6141 15.6914C24.8719 15.6914 25.0198 15.6789 25.1801 15.5727C25.5686 15.3102 25.5871 15.2415 25.5871 13.692C25.5871 11.6488 25.6056 11.6675 23.7374 11.6488C23.0777 11.6426 22.4426 11.6613 22.3378 11.6863ZM24.6622 13.6607V14.7541H23.5832H22.5043V13.7045C22.5043 13.1234 22.5228 12.6298 22.5474 12.611C22.5659 12.586 23.053 12.5673 23.6264 12.5673H24.6622V13.6607Z" fill="white"/>
<path d="M3.42285 17.4863C3.21939 17.5426 2.9666 17.755 2.86179 17.9487C2.7878 18.1049 2.7693 18.3736 2.7878 19.567C2.8063 20.9916 2.8063 20.9916 2.96044 21.1603C3.26255 21.4852 3.34887 21.5039 4.76079 21.5039C6.24053 21.5039 6.3885 21.4664 6.62896 21.0603C6.73994 20.8666 6.75227 20.7354 6.75227 19.4607C6.75227 18.1611 6.74611 18.0674 6.62279 17.9049C6.31451 17.4801 6.28369 17.4738 4.85327 17.4613C4.1319 17.4613 3.49068 17.4676 3.42285 17.4863ZM5.84593 19.4857L5.85826 20.5667H4.77928H3.70031V19.4732V18.3798L4.76695 18.3923L5.82743 18.4111L5.84593 19.4857Z" fill="white"/>
<path d="M9.65562 17.5034C9.56313 17.5347 9.42749 17.6097 9.35967 17.6721C9.08222 17.9221 9.06372 18.0533 9.06372 19.5029C9.06372 21.0087 9.07605 21.0836 9.42132 21.3461C9.57546 21.4585 9.69878 21.471 10.9566 21.4898C12.5103 21.5085 12.6521 21.4835 12.8987 21.0712C13.0344 20.8587 13.0405 20.79 13.0405 19.5029C13.0405 18.272 13.0282 18.1408 12.9172 17.9471C12.8494 17.8283 12.7137 17.6784 12.6213 17.6034C12.4548 17.4784 12.3623 17.4722 11.1415 17.4597C10.4201 17.4535 9.75427 17.4722 9.65562 17.5034ZM12.1342 19.4841L12.1465 20.5651H11.0675H9.98856V19.4716V18.3782L11.0552 18.3907L12.1157 18.4094L12.1342 19.4841Z" fill="white"/>
<path d="M15.8711 17.5301C15.6245 17.6425 15.4333 17.8925 15.347 18.2111C15.3038 18.3673 15.2915 18.9234 15.3038 19.6544C15.3223 20.7666 15.3347 20.8666 15.4642 21.0728C15.7046 21.4727 15.8526 21.5039 17.3262 21.5039C18.7874 21.5039 18.9477 21.4664 19.1758 21.0978C19.2868 20.9103 19.2991 20.7916 19.2991 19.4982C19.2991 18.2236 19.2868 18.0799 19.1758 17.8987C18.9354 17.4926 18.8614 17.4738 17.3878 17.4613C16.3705 17.4488 16.0191 17.4613 15.8711 17.5301ZM18.3743 19.4732V20.5667H17.2953H16.2164V19.517C16.2164 18.9359 16.2349 18.4423 16.2595 18.4235C16.278 18.3986 16.7651 18.3798 17.3385 18.3798H18.3743V19.4732Z" fill="white"/>
<path d="M22.3378 17.6238C22.048 17.6988 21.8445 17.8487 21.7212 18.0862C21.6226 18.2611 21.6103 18.461 21.6103 19.6295C21.6103 21.6601 21.5794 21.6289 23.6141 21.6289C24.8719 21.6289 25.0198 21.6164 25.1801 21.5102C25.5686 21.2477 25.5871 21.179 25.5871 19.6295C25.5871 17.5863 25.6056 17.605 23.7374 17.5863C23.0777 17.5801 22.4426 17.5988 22.3378 17.6238ZM24.6622 19.5982V20.6916H23.5832H22.5043V19.642C22.5043 19.0609 22.5228 18.5673 22.5474 18.5485C22.5659 18.5235 23.053 18.5048 23.6264 18.5048H24.6622V19.5982Z" fill="white"/>
<path d="M3.26876 23.3656C3.15161 23.4218 2.99131 23.5655 2.91732 23.6843C2.78168 23.8904 2.77551 23.9467 2.77551 25.2838C2.77551 26.6209 2.78168 26.6771 2.91732 26.8833C3.17628 27.277 3.32425 27.3145 4.78549 27.3145C6.03094 27.3145 6.0926 27.3082 6.2899 27.1707C6.74615 26.8583 6.75232 26.8396 6.75232 25.2838C6.75232 23.728 6.74615 23.7092 6.2899 23.3906C6.0926 23.2594 6.03094 23.2531 4.78549 23.2531C3.66952 23.2531 3.45373 23.2719 3.26876 23.3656ZM5.85831 25.2838V26.3772H4.77933H3.70035V25.2838V24.1904H4.77933H5.85831V25.2838Z" fill="white"/>
<path d="M9.58822 23.3408C9.48957 23.3845 9.33543 23.5033 9.24911 23.597L9.09497 23.7657V25.284V26.8086L9.27994 27.0023C9.55739 27.2897 9.76085 27.3272 11.1728 27.3022C12.5662 27.2834 12.6032 27.2709 12.9115 26.8523C13.0348 26.6898 13.0409 26.5961 13.0409 25.284C13.0409 23.7282 13.0348 23.7095 12.5785 23.3908C12.3812 23.2596 12.3257 23.2533 11.0741 23.2533C10.1308 23.2596 9.72386 23.2783 9.58822 23.3408ZM12.1469 25.284V26.3774H11.068H9.98898V25.284V24.1906H11.068H12.1469V25.284Z" fill="white"/>
<path d="M15.7844 23.3906C15.396 23.6593 15.322 23.828 15.322 24.4403C15.322 25.0963 15.4083 25.2526 15.7844 25.2526C16.1235 25.2526 16.216 25.1088 16.216 24.609V24.1904H17.295H18.374V25.2838V26.3772H17.3073H16.2407L16.1729 26.1898C16.0496 25.8524 15.5317 25.8586 15.3898 26.2023C15.285 26.446 15.3528 26.7709 15.5501 26.9833C15.8153 27.2832 15.9941 27.3145 17.3258 27.3145C18.6638 27.3145 18.8302 27.2832 19.1139 26.9708L19.268 26.8021V25.2838V23.7655L19.1139 23.5968C18.8302 23.2844 18.6699 23.2531 17.2765 23.2531C16.0434 23.2531 15.9817 23.2594 15.7844 23.3906Z" fill="white"/>
</svg>
