<svg width="96" height="107" viewBox="0 0 96 107" fill="none" xmlns="http://www.w3.org/2000/svg">
<path d="M8.67201 0.154114C5.62211 0.719429 3.00969 2.56615 1.37225 5.30482C1.13476 5.69427 0.747268 6.58621 0.497276 7.28973L0.0472909 8.57111L0.00979212 53.0432C-0.0152071 93.3067 -0.00270746 97.6157 0.172287 98.5076C1.00976 102.653 4.39715 106.008 8.58451 106.824C9.35948 106.975 13.7593 107 36.6836 107L95.2466 106.998V104.363V101.724H37.2711C21.9216 101.724 10.3345 101.673 9.88447 101.598C7.63454 101.271 5.8471 99.588 5.37212 97.3518C5.17212 96.3971 5.17212 10.556 5.37212 9.61383C5.7221 7.99324 6.80957 6.59878 8.32202 5.84501L9.17199 5.43044H47.8582H86.5444L87.4194 5.85758C88.9444 6.61134 89.9943 7.96812 90.3443 9.61383C90.4443 10.0912 90.4818 19.3249 90.4818 42.6287V101.724C90.4818 101.724 91.5861 101.736 92.6258 101.724C93.6607 101.711 95.2466 106.058 95.2466 106.058L95.7941 42.1136V9.32489L95.5192 8.23193C94.5192 4.28723 91.6943 1.41037 87.7319 0.267166C86.9444 0.0410385 85.5445 0.0284729 48.2332 0.0033493C16.8342 -0.00921631 9.38448 0.0159225 8.67201 0.154114Z" fill="#087CA7"/>
<path d="M21.0452 15.1437C20.2827 15.3824 19.7702 15.822 19.4078 16.5632C18.8203 17.7944 19.2078 19.1763 20.3952 19.9552L20.9202 20.3069L45.4694 20.3446C61.4689 20.3572 70.1811 20.3321 70.4811 20.2441C70.7311 20.1813 71.181 19.9175 71.456 19.6788C73.081 18.2843 72.3935 15.5708 70.2936 15.0934C70.0061 15.018 59.7689 14.9803 45.6819 14.9803C26.47 14.9803 21.4577 15.018 21.0452 15.1437Z" fill="#087CA7"/>
<path d="M20.6829 26.0014C18.583 26.9813 18.633 29.9461 20.7704 30.8381C21.1829 31.0139 23.8828 31.0391 45.8071 31.0391C69.7438 31.0391 70.3938 31.0391 70.8438 30.8004C72.8687 29.7577 72.8687 27.0441 70.8438 26.0014C70.3938 25.7627 69.7438 25.7627 45.7821 25.7627C22.1079 25.7627 21.1704 25.7753 20.6829 26.0014Z" fill="#087CA7"/>
<path d="M20.628 36.7278C19.203 37.4565 18.7155 39.2153 19.578 40.5469C20.0155 41.2127 20.5655 41.577 21.403 41.7278C21.8654 41.8157 25.8528 41.8534 32.8901 41.8283C44.7647 41.7906 44.1272 41.8283 44.9272 41.0243C46.2521 39.6926 45.8772 37.4565 44.1897 36.6901C43.7147 36.464 43.0522 36.4515 32.4401 36.4515H21.178L20.628 36.7278Z" fill="#087CA7"/>
</svg>
