<svg width="78" height="78" viewBox="0 0 78 78" fill="none" xmlns="http://www.w3.org/2000/svg">
<g clip-path="url(#clip0_809_13808)">
<path d="M68.7556 32.832H59.4148C50.8444 32.832 49.9778 32.832 49.4 33.2172C48.6296 33.6986 48.1481 34.6614 48.1481 35.7205C48.1481 38.9942 45.9333 42.5567 43.0444 44.001C40.2519 45.4452 37.7481 45.4452 34.8593 44.001C31.9704 42.5567 29.7556 38.9942 29.7556 35.7205C29.7556 34.6614 29.2741 33.6023 28.5037 33.2172C27.9259 32.9283 27.0593 32.832 18.4889 32.832H9.24445H4.52593H3.17778C1.54074 32.832 0.77037 33.1209 0.288889 33.9874C0 34.6614 0 35.2391 0 55.4588C0 76.1598 0 76.2561 0.385185 76.7375C0.577778 77.0264 1.05926 77.4115 1.34815 77.6041C1.92593 77.9892 4.14074 77.9892 39 77.9892C73.8593 77.9892 76.0741 77.9892 76.6519 77.6041C77.037 77.4115 77.4222 77.0264 77.6148 76.7375C78 76.2561 78 76.1598 78 55.4588C78 35.1428 78 34.6614 77.6148 34.0837C77.1333 33.2172 76.363 32.9283 74.7259 32.9283H73.3778H68.7556V32.832ZM73.4741 55.4588V73.0787H39H4.52593V55.4588V37.8388H14.9259L25.3259 37.9351L25.7111 39.3793C27.0593 44.3861 31.0074 48.3337 35.8222 49.5854C37.4593 49.9706 40.4444 49.9706 42.0815 49.5854C46.8963 48.3337 50.7482 44.3861 52.1926 39.3793L52.5778 37.9351L62.9778 37.8388H73.3778V55.4588H73.4741Z" fill="#087CA7"/>
<path d="M13.6741 20.701V18.294H30.6222C36.9778 18.294 41.0222 18.294 43.6222 18.294V17.1385H49.1111C49.6889 16.5608 50.363 15.8869 51.1333 15.0203L53.7333 12.2281H58.9333H64.2296V14.7314V17.1385H68.7556L68.6593 13.0946C68.563 10.3024 68.4667 8.85812 68.3704 8.56927C67.9852 7.799 67.2148 7.60643 65.6741 7.60643H64.2296V4.71791C64.2296 1.63683 64.037 0.96284 62.9778 0.385136C62.4963 0 61.8222 0 56.237 0C51.037 0 49.9778 0.096284 49.4963 0.288852C49.2074 0.48142 47.763 1.8294 46.3185 3.27365L43.7185 6.06589H29.6593C16.3704 6.06589 15.5037 6.06589 14.9259 6.45102C13.8667 7.02873 13.6741 7.70272 13.6741 10.7838V13.4798H12.2296C10.6889 13.4798 9.91853 13.7686 9.53335 14.4426C9.34075 14.7314 9.24446 16.1757 9.24446 18.9679L9.14816 23.1081L7.60742 23.2044H13.6741V20.701ZM18.3926 12.2281V10.9764H31.7778C43.3333 10.9764 45.2593 10.9764 45.7408 10.6875C46.0296 10.495 47.4741 9.14698 48.9185 7.60643L51.5185 4.8142H55.563H59.6074V6.06589V7.31758H55.7556H51.9037L49.0148 10.3987L46.1259 13.4798H32.2593H18.3926V12.2281Z" fill="#087CA7"/>
<path d="M49.2074 17.043H43.7185V18.1984C46.9926 18.1984 47.8592 18.1021 48.1481 18.0058C48.2444 17.9095 48.6296 17.5244 49.2074 17.043Z" fill="#087CA7"/>
<path d="M73.3777 23.2051C73.3777 19.1612 73.2814 18.7761 72.9926 18.2947C72.5111 17.4281 72.0296 17.2355 70.2963 17.1393L68.7555 17.043H64.2296V17.1393L59.1259 17.2355L54.0222 17.3318L51.2296 20.2203L48.437 23.2051H43.7185H31.1037H13.7703H7.60736C5.87403 23.3014 5.39255 23.494 4.91106 24.3605C4.62218 24.9383 4.52588 25.3234 4.52588 28.8859V32.8335H9.1481V30.4264V27.9231H29.4666C46.8 27.9231 49.8814 27.9231 50.3629 27.6342C50.4592 27.5379 50.9407 27.1528 51.5185 26.5751C52.0962 25.9974 52.7703 25.3234 53.4444 24.6494L54.7925 23.2051L56.0444 21.8572H62.4H68.7555V23.2051V26.6714V27.4416V32.9298H73.3777V26.6714V25.9974C73.474 24.842 73.474 23.9754 73.3777 23.2051Z" fill="#FFB300"/>
</g>
<defs>
<clipPath id="clip0_809_13808">
<rect width="78" height="77.99" fill="white"/>
</clipPath>
</defs>
</svg>
