<svg width="36" height="36" viewBox="0 0 36 36" fill="none" xmlns="http://www.w3.org/2000/svg">
<path d="M25.087 0.0827334C23.4222 0.349611 22.0012 0.979167 20.6916 2.02615C19.5771 2.90889 19.3333 3.29895 19.6746 3.63425C19.9951 3.94903 20.1901 3.88744 20.9076 3.23052C21.6738 2.52569 22.1684 2.19038 23.0182 1.79348C26.8772 -0.0267547 31.4607 1.45133 33.4947 5.16709C34.9087 7.74006 34.7764 10.7373 33.1394 13.2213C32.7981 13.7414 32.1851 14.3778 29.1202 17.3955C25.9647 20.5091 25.505 20.9881 25.505 21.166C25.505 21.5903 25.8881 21.8366 26.2573 21.645C26.6056 21.4671 33.3763 14.7062 33.8081 14.104C34.5604 13.0639 35.062 11.9143 35.3685 10.5525C35.5496 9.71768 35.5357 8.02746 35.3406 7.11734C34.5674 3.60004 31.9274 0.972324 28.3609 0.178535C27.5599 0.000617329 25.8881 -0.0541267 25.087 0.0827334Z" fill="white"/>
<path d="M25.9228 3.67816C25.3168 3.7329 24.9406 3.82186 24.3555 4.06137C23.4151 4.45142 23.0738 4.73882 19.6954 8.04399C17.9052 9.7958 16.2334 11.4655 15.9827 11.7461C15.4811 12.314 14.9866 13.231 14.7985 13.9358C14.6313 14.5448 14.6313 15.9271 14.8055 16.5293C15.0423 17.3915 15.6135 18.3906 16.1359 18.8628C16.721 19.3897 16.7837 20.204 16.2892 20.7583C16.0175 21.0594 15.718 21.1894 15.2931 21.1894C14.8473 21.1894 14.5617 21.0389 14.1159 20.5598C12.5207 18.8696 11.7405 16.4472 12.0679 14.1685C12.2281 13.0394 12.7366 11.7324 13.3914 10.7744C13.5656 10.5212 14.7428 9.29626 16.2822 7.77712C17.7102 6.36746 18.9083 5.13572 18.9431 5.03992C19.0964 4.64986 18.7341 4.2735 18.3162 4.38299C18.0863 4.43773 13.2033 9.27574 12.7088 9.93951C10.1384 13.3815 10.424 18.2401 13.3844 21.2784C13.67 21.5795 14.0601 21.9011 14.2552 21.9969C14.5617 22.1611 14.6801 22.1816 15.3 22.1816C16.122 22.1816 16.4912 22.0448 16.9927 21.5452C17.4594 21.0936 17.6614 20.5941 17.6614 19.9234C17.6614 19.2323 17.4803 18.808 16.8813 18.1511C16.0593 17.241 15.7249 16.3788 15.7249 15.2018C15.7249 14.538 15.7528 14.3806 15.9339 13.8674C16.0523 13.5458 16.2613 13.1147 16.4006 12.9094C16.5399 12.7041 18.2744 10.9454 20.2596 9.00202C24.2092 5.13572 24.2371 5.10835 25.3307 4.83463C28.1309 4.1298 30.7361 6.07321 30.7501 8.872C30.757 9.6042 30.6525 10.0558 30.2973 10.788C30.0187 11.356 29.9629 11.4176 27.5737 13.7784C25.1844 16.1393 25.1357 16.194 25.1844 16.413C25.2053 16.5362 25.2959 16.6936 25.3725 16.7551C25.7138 17.0357 25.7417 17.0152 28.2424 14.5654C31.0774 11.8008 31.3004 11.5066 31.6904 10.0695C31.8228 9.56314 31.8367 8.3793 31.7113 7.81133C31.4397 6.55906 30.6525 5.36154 29.6495 4.66355C28.5001 3.86292 27.3577 3.56183 25.9228 3.67816Z" fill="white"/>
<path d="M19.4447 12.8843C18.6924 13.1511 18.1491 13.7533 17.9401 14.5471C17.7311 15.3751 17.9401 16.0457 18.6715 16.8464C19.9253 18.2287 20.197 20.0489 19.3959 21.6638C19.1591 22.1497 18.978 22.3413 16.7907 24.5105C15.2165 26.0707 14.4224 26.8987 14.3876 27.0288C14.3179 27.323 14.5408 27.583 14.8821 27.6104C15.1538 27.6309 15.1608 27.6241 17.4595 25.3522C20.0159 22.834 20.2388 22.5534 20.6289 21.4107C21.2349 19.6315 20.81 17.6333 19.5422 16.2716C18.978 15.6694 18.8178 15.2588 18.9571 14.7661C19.0476 14.4239 19.3959 14.0202 19.7024 13.897C20.0228 13.7602 20.5174 13.7807 20.8309 13.9381C20.9772 14.0065 21.2767 14.2597 21.4857 14.4855C23.6799 16.8737 24.1744 20.391 22.7186 23.2651C22.1404 24.401 21.8757 24.6953 18.0167 28.4863C15.516 30.9498 14.1577 32.2363 13.8024 32.4826C12.0262 33.6938 9.96431 34.1934 7.95121 33.8854C6.82972 33.7212 5.96597 33.427 5.09525 32.9274C3.62548 32.0789 2.35075 30.6829 1.72383 29.2185C0.672001 26.7482 0.922768 23.9905 2.41344 21.7596C2.74779 21.2601 3.45133 20.5347 6.43267 17.5991C9.83893 14.2323 10.0409 14.0202 10.0409 13.7944C10.0409 13.4933 9.84589 13.3017 9.54636 13.3017C9.35132 13.3017 8.91945 13.7054 5.61768 16.9559C1.689 20.829 1.52182 21.0206 0.915803 22.2523C0.595378 22.9093 0.267988 23.9152 0.142605 24.6132C0.00328973 25.3659 0.024187 27.0493 0.177433 27.761C0.978494 31.552 3.9459 34.3439 7.77706 34.9119C9.06573 35.1035 10.3544 35.0145 11.6779 34.6382C12.458 34.4192 13.8164 33.7623 14.4642 33.2969C15.105 32.8316 22.3842 25.6807 22.844 25.058C23.5545 24.1068 24.1605 22.7656 24.4322 21.5338C24.6063 20.7469 24.6342 19.2483 24.5018 18.4203C24.1953 16.5863 23.3943 14.9782 22.1613 13.7123C21.4787 13.0006 21.1304 12.8295 20.3502 12.7953C19.9323 12.7816 19.6676 12.8022 19.4447 12.8843Z" fill="white"/>
<path d="M7.30343 20.4194C4.49623 23.1703 4.25243 23.4919 3.86931 24.8879C3.69517 25.5311 3.7091 26.7423 3.90414 27.4403C4.29422 28.8842 5.30426 30.1091 6.65561 30.7865C7.45667 31.1834 8.10449 31.334 9.06576 31.334C10.2569 31.334 11.1903 31.0534 12.1377 30.4239C12.7019 30.0475 13.6562 29.1511 13.7676 28.8979C13.8721 28.6584 13.7885 28.3436 13.5935 28.2409C13.28 28.0767 13.1198 28.1588 12.3466 28.8842C11.5316 29.6506 10.9604 29.9859 10.1455 30.1912C9.60909 30.3212 8.51547 30.3212 7.98607 30.1912C5.2555 29.4932 3.9738 26.4755 5.35302 23.9983C5.55503 23.6424 6.06352 23.095 8 21.1858C10.5843 18.6265 10.5773 18.6334 10.2151 18.2844C9.85289 17.9217 9.85986 17.9217 7.30343 20.4194Z" fill="white"/>
</svg>
