<?xml version="1.0" encoding="utf-8"?>
<!-- Generator: Adobe Illustrator 27.2.0, SVG Export Plug-In . SVG Version: 6.00 Build 0)  -->
<svg version="1.1" id="Layer_1" xmlns="http://www.w3.org/2000/svg" xmlns:xlink="http://www.w3.org/1999/xlink" x="0px" y="0px"
	 viewBox="0 0 81 81" style="enable-background:new 0 0 81 81;" xml:space="preserve">
<style type="text/css">
	.st0{fill:none;}
	.st1{fill:#087CA7;}
	.st2{fill:#FFB300;}
</style>
<g>
	<path class="st0" d="M71.4,27.7H53.6c-0.6,0.6-1.1,1-1.2,1.1C52,29,48.7,29,30.7,29H9.6v2.6v2.5h61.8v-5.7V27.7z"/>
	<path class="st0" d="M47.8,14l3-3.2l3-3.2h4h4V6.4V5.1h-4.2h-4.2L50.7,8c-1.5,1.6-3,3-3.3,3.2c-0.5,0.3-2.5,0.3-14.5,0.3H19.1v1.3
		V14h14.4H47.8z"/>
	<path class="st0" d="M31.8,19H14.2v2.6v2.6h18h13.1v-5.2C42.7,19,38.5,19,31.8,19z"/>
	<path class="st0" d="M66.8,15.2v-2.6h-5.5h-5.4l-2.7,2.9c-0.8,0.8-1.5,1.6-2.1,2.2h15.7V15.2z"/>
	<path class="st0" d="M9.6,34.2h9.7c8.9,0,9.8,0,10.4,0.4C30.5,35,31,36,31,37.1c0,3.4,2.3,7.1,5.3,8.6c2.9,1.5,5.5,1.5,8.5,0
		c3-1.5,5.3-5.2,5.3-8.6c0-1.1,0.5-2.2,1.3-2.6c0.6-0.3,1.5-0.4,10.4-0.4h9.7v0L9.6,34.2L9.6,34.2z"/>
	<path class="st0" d="M54.6,39.4l-0.4,1.5c-1.4,5.2-5.5,9.3-10.5,10.6c-1.7,0.4-4.8,0.4-6.5,0c-5-1.3-9-5.4-10.5-10.6l-0.4-1.5
		l-10.8-0.1l-10.8,0v18.3v18.3h35.8h35.8V57.6V39.3l-10.8,0L54.6,39.4z"/>
	<path class="st1" d="M71.4,34.1L71.4,34.1l-9.7,0c-8.9,0-9.8,0-10.4,0.4C50.5,35,50,36,50,37.1c0,3.4-2.3,7.1-5.3,8.6
		c-2.9,1.5-5.5,1.5-8.5,0c-3-1.5-5.3-5.2-5.3-8.6c0-1.1-0.5-2.2-1.3-2.6c-0.6-0.3-1.5-0.4-10.4-0.4H9.6v0H4.7v0H3.3
		c-1.7,0-2.5,0.3-3,1.2C0,36,0,36.6,0,57.6c0,21.5,0,21.6,0.4,22.1c0.2,0.3,0.7,0.7,1,0.9C2,81,4.3,81,40.5,81
		c36.2,0,38.5,0,39.1-0.4c0.4-0.2,0.8-0.6,1-0.9C81,79.2,81,79.1,81,57.6c0-21.1,0-21.6-0.4-22.2c-0.5-0.9-1.3-1.2-3-1.2h-1.4v0
		H71.4z M76.3,57.6v18.3H40.5H4.7V57.6V39.3l10.8,0l10.8,0.1l0.4,1.5c1.4,5.2,5.5,9.3,10.5,10.6c1.7,0.4,4.8,0.4,6.5,0
		c5-1.3,9-5.4,10.5-10.6l0.4-1.5l10.8-0.1l10.8,0V57.6z"/>
	<path class="st1" d="M14.2,21.5V19h17.6c6.6,0,10.8,0,13.5,0v-1.2h5.7c0.6-0.6,1.3-1.3,2.1-2.2l2.7-2.9h5.4h5.5v2.6v2.5h4.7
		l-0.1-4.2c-0.1-2.9-0.2-4.4-0.3-4.7c-0.4-0.8-1.2-1-2.8-1h-1.5V4.9c0-3.2-0.2-3.9-1.3-4.5C64.9,0,64.2,0,58.4,0
		c-5.4,0-6.5,0.1-7,0.3c-0.3,0.2-1.8,1.6-3.3,3.1l-2.7,2.9H30.8c-13.8,0-14.7,0-15.3,0.4c-1.1,0.6-1.3,1.3-1.3,4.5V14h-1.5
		c-1.6,0-2.4,0.3-2.8,1c-0.2,0.3-0.3,1.8-0.3,4.7L9.5,24l-1.6,0.1h6.3V21.5z M19.1,12.7v-1.3H33c12,0,14,0,14.5-0.3
		c0.3-0.2,1.8-1.6,3.3-3.2l2.7-2.9h4.2h4.2v1.3v1.3h-4h-4l-3,3.2l-3,3.2H33.5H19.1V12.7z"/>
	<path class="st1" d="M51.1,17.7h-5.7v1.2c3.4,0,4.3-0.1,4.6-0.2C50.1,18.6,50.5,18.2,51.1,17.7z"/>
	<path class="st2" d="M76.2,24.1c0-4.2-0.1-4.6-0.4-5.1c-0.5-0.9-1-1.1-2.8-1.2l-1.6-0.1h-4.7v0.1l-5.3,0.1l-5.3,0.1L53.2,21
		l-2.9,3.1h-4.9H32.3h-18H7.9c-1.8,0.1-2.3,0.3-2.8,1.2c-0.3,0.6-0.4,1-0.4,4.7v4.1h4.8v-2.5V29h21.1c18,0,21.2,0,21.7-0.3
		c0.1-0.1,0.6-0.5,1.2-1.1c0.6-0.6,1.3-1.3,2-2l1.4-1.5l1.3-1.4h6.6h6.6v1.4v3.6v0.8v5.7h4.8v-6.5v-0.7
		C76.3,25.8,76.3,24.9,76.2,24.1z"/>
</g>
</svg>
