<svg width="33" height="34" viewBox="0 0 33 34" fill="none" xmlns="http://www.w3.org/2000/svg">
<path d="M8.29714 1.05C8.01898 1.17895 7.84258 1.51149 7.89686 1.8101C7.97149 2.17658 8.24287 2.34625 9.11807 2.54306C9.54549 2.64486 10.0068 2.76023 10.1493 2.79417L10.4003 2.86882L9.5862 3.29638C7.73403 4.26686 6.01077 5.65133 4.65387 7.26655C2.76099 9.5265 1.51264 12.404 1.07165 15.5123C0.963096 16.2928 0.963096 18.8038 1.07165 19.5164C1.56013 22.6111 2.46247 24.8236 4.23323 27.2192C4.85062 28.054 6.49925 29.6964 7.37445 30.3411C9.55228 31.9495 11.9472 32.9471 14.661 33.3747C15.7533 33.5444 18.2432 33.5444 19.3355 33.3747C24.7767 32.5128 29.363 29.0516 31.568 24.1381C32.2193 22.6926 32.5857 21.4574 32.8435 19.815C33.0199 18.736 33.0538 16.6389 32.9113 15.6141C32.0633 9.3229 28.0197 4.36188 22.0765 2.31231C21.6423 2.16301 21.2148 2.04085 21.1266 2.04085C20.7264 2.04085 20.421 2.35982 20.421 2.78738C20.421 3.11314 20.706 3.34388 21.3709 3.56784C23.603 4.3008 25.4212 5.39344 27.0631 6.96794C30.5028 10.273 32.104 14.8947 31.4391 19.6182C31.1881 21.3759 30.5028 23.3305 29.5869 24.8982C28.5082 26.751 26.5475 28.753 24.6681 29.9271C23.352 30.7483 21.3777 31.5355 19.8783 31.8274C15.7465 32.635 11.6215 31.7052 8.27001 29.2145C6.95381 28.2372 5.38659 26.5202 4.53853 25.1425C0.121818 17.9351 2.73385 8.50172 10.2511 4.55869C10.6853 4.32794 11.0584 4.1447 11.0788 4.1447C11.1059 4.1447 10.8549 4.56548 10.5225 5.07447C9.61334 6.49288 9.59977 6.52681 9.83723 6.90686C9.92542 7.04938 10.0543 7.15118 10.2375 7.20547C10.7192 7.34799 10.8142 7.24619 12.2322 5.0609C12.931 3.97504 13.5212 3.02491 13.5416 2.93669C13.623 2.64486 13.5076 2.31231 13.2838 2.17658C13.1616 2.10872 12.1032 1.81689 10.9295 1.53185C8.30393 0.893909 8.55495 0.941418 8.29714 1.05Z" fill="#FFB300"/>
<path d="M16.6287 7.1583C16.2827 7.34832 16.2894 7.3076 16.2827 11.3185V15.0715L16.0113 15.2072C15.4075 15.5126 14.98 16.0284 14.8172 16.6528C14.6883 17.1482 14.7019 17.44 14.8715 17.9694C15.0682 18.5734 15.5906 19.1231 16.1809 19.3403C17.0154 19.6525 18.0602 19.4217 18.6233 18.7906C19.2204 18.1323 19.4103 17.1414 19.0779 16.4085L18.9286 16.0759L20.2041 14.61C21.8392 12.7233 21.8052 12.7708 21.7578 12.4451C21.7306 12.2754 21.6424 12.1193 21.4999 11.9904C21.3168 11.8275 21.2421 11.8071 21.0182 11.8343C20.8758 11.8546 20.7062 11.9089 20.6451 11.9632C20.584 12.0107 19.9395 12.7369 19.2136 13.5784C18.4808 14.42 17.8567 15.1054 17.816 15.1054C17.7617 15.1054 17.7278 13.9449 17.7074 11.2846L17.6735 7.45691L17.4496 7.2601C17.2054 7.04292 16.9068 7.0022 16.6287 7.1583Z" fill="#FFB300"/>
</svg>
