<svg width="29" height="32" viewBox="0 0 29 32" fill="none" xmlns="http://www.w3.org/2000/svg">
<path d="M12.8539 0.233662C10.7056 0.473513 8.57793 1.14257 6.8772 2.10829C4.99745 3.18131 3.22786 4.8224 2.13306 6.52662C0.563157 8.96301 -0.187367 11.7844 0.039856 14.3975C0.322163 17.5661 1.71304 20.4065 4.08167 22.603C5.13516 23.5877 14.4513 31.8184 14.5064 31.8184C14.5615 31.8184 23.6573 23.7833 24.8622 22.6724C28.966 18.879 30.1228 13.3245 27.8575 8.3255C27.0863 6.63392 26.2049 5.4031 24.8072 4.09023C22.6933 2.10198 20.0837 0.839602 17.054 0.353586C16.0763 0.195789 13.7627 0.126358 12.8539 0.233662ZM16.6409 2.34183C20.8411 3.02983 24.3114 5.63033 25.8744 9.2786C26.4872 10.7051 26.7627 11.9864 26.7627 13.4318C26.7627 14.4922 26.68 15.136 26.4115 16.1333C25.9846 17.7239 25.2754 19.0557 24.1806 20.3307C23.9396 20.6084 23.1891 21.3343 22.5143 21.9466C20.4073 23.8591 14.5684 29.0096 14.5064 29.0096C14.4513 29.0096 8.52285 23.7833 6.42964 21.8834C5.10073 20.6842 4.33644 19.8195 3.77182 18.8853C2.06421 16.0639 1.77501 12.6933 2.9731 9.65731C3.80625 7.54283 5.15582 5.83231 7.03557 4.50681C8.8327 3.23181 10.8502 2.49963 13.3358 2.22191C13.8729 2.1651 16.0143 2.24084 16.6409 2.34183Z" fill="white"/>
<path d="M11.2029 10.5148V16.5742H14.5079H17.813V10.5148V4.45539H14.5079H11.2029V10.5148ZM15.6096 10.5148V14.5544H14.5079H13.4063V10.5148V6.47519H14.5079H15.6096V10.5148Z" fill="white"/>
<path d="M11.2029 21.1207V24.1504H14.5079H17.813V21.1207V18.091H14.5079H11.2029V21.1207ZM15.6096 21.1207V22.1306H14.5079H13.4063V21.1207V20.1108H14.5079H15.6096V21.1207Z" fill="white"/>
</svg>
