<svg width="81" height="73" viewBox="0 0 81 73" fill="none" xmlns="http://www.w3.org/2000/svg">
<path d="M12.0631 0.12347C8.69429 0.616879 5.42758 3.03288 3.91333 6.12945C2.65429 8.69858 2.72234 7.26939 2.72234 29.6259C2.72234 52.0335 2.63727 50.5363 3.93034 53.1734C5.22342 55.8106 7.7415 57.9034 10.719 58.8391L11.995 59.2305H40.4937H68.9923L70.2683 58.8391C73.2458 57.9034 75.7639 55.8106 77.057 53.1734C78.35 50.5363 78.265 52.0335 78.265 29.6259C78.265 7.28641 78.333 8.69858 77.091 6.14646C75.8149 3.56032 73.467 1.51862 70.5916 0.514793L69.1624 0.0213852L41.0891 0.00436783C25.6574 -0.0126457 12.5905 0.0383987 12.0631 0.12347ZM69.7239 5.44888C71.085 6.0784 72.4632 7.5246 73.0246 8.90275L73.4159 9.88956V29.6259V49.3623L73.0246 50.3491C72.4632 51.7272 71.085 53.1734 69.7239 53.803L68.652 54.2964H40.4937H12.3353L11.2634 53.803C9.90229 53.1734 8.52415 51.7272 7.96269 50.3491L7.57136 49.3623V29.6259V9.88956L7.96269 8.91976C8.69429 7.11626 10.5488 5.48291 12.3693 5.05756C12.7436 4.97249 25.0108 4.92145 40.8339 4.92145L68.652 4.95547L69.7239 5.44888Z" fill="#087CA7"/>
<path d="M34.5046 15.4708C31.6973 16.4406 29.8087 18.6014 29.2813 21.4768C29.026 22.8039 29.026 36.4662 29.2813 37.8103C29.8087 40.7368 32.0716 43.1698 34.9469 43.9354C36.8015 44.4288 39.3026 44.0715 40.8338 43.1017C42.9436 41.7746 51.2805 35.7687 51.9951 35.0541C55.0236 32.0936 55.0066 27.1595 51.9951 24.1991C51.1954 23.4164 42.7905 17.3764 40.7488 16.1174C38.9793 15.0455 36.5293 14.7903 34.5046 15.4708ZM38.2477 20.3539C39.6769 21.1025 48.5752 27.6189 48.9496 28.1633C49.6471 29.2012 49.426 30.8175 48.4562 31.6853C47.9117 32.1957 38.7071 38.6781 38.0946 38.9843C37.8393 39.1204 37.2439 39.2395 36.7845 39.2395C35.7126 39.2395 34.9299 38.7291 34.4195 37.7083C34.0282 36.9596 34.0282 36.8916 34.0282 29.6266C34.0282 22.8549 34.0622 22.2595 34.3515 21.6129C34.6407 20.9664 35.2702 20.3709 35.8997 20.1327C36.4782 19.9285 37.6352 20.0306 38.2477 20.3539Z" fill="#FFB300"/>
<path d="M1.25904 68.1461C0.391324 68.6736 0 69.3031 0 70.1878C0 71.0896 0.425353 71.9062 1.13995 72.3656C1.58231 72.6549 3.30074 72.6719 40.4936 72.6719C77.6864 72.6719 79.4048 72.6549 79.8472 72.3656C81.0212 71.6 81.3785 69.8305 80.5448 68.8437C79.609 67.7378 82.9438 67.8229 40.4595 67.8229C2.8924 67.8229 1.76947 67.8399 1.25904 68.1461Z" fill="#087CA7"/>
</svg>
