<?xml version="1.0" encoding="utf-8"?>
<!-- Generator: Adobe Illustrator 27.2.0, SVG Export Plug-In . SVG Version: 6.00 Build 0)  -->
<svg version="1.1" id="Layer_1" xmlns="http://www.w3.org/2000/svg" xmlns:xlink="http://www.w3.org/1999/xlink" x="0px" y="0px"
	 viewBox="0 0 175.2 168.5" style="enable-background:new 0 0 175.2 168.5;" xml:space="preserve">
<style type="text/css">
	.st0{fill:#3B2D61;}
	.st1{fill:#6DC9F7;}
	.st2{fill:#0089EF;}
	.st3{fill:#FA759E;}
	.st4{fill:#FFD7E5;}
	.st5{fill:#D4FBFF;}
	.st6{fill:#FFFFFF;}
	.st7{fill:#E6E7E8;}
</style>
<g>
	<path class="st0" d="M40.4,110.9c-4.7-3.8-8.4-8.2-10.8-13.7c-1.6-3.6-2.4-7.3-2.5-11.3c-0.2-7.5,2.1-14.3,5.7-20.8
		c1.5-2.7,3.1-5.2,5-7.6c0.3-0.4,0.7-0.9,0.6-1.4c-0.2-1.6,0.4-3,0.5-4.6c0-1.8,0.4-3.6,0.6-5.6c-2.5-3.1-2.4-4.7,0.5-6.7
		c0-0.2,0.1-0.4,0.1-0.5c0-8.5,0-16.9,0-25.4c0-0.4-0.1-0.9-0.1-1.3c0-0.7,0.1-1.5,0.1-2.2c0-0.5-0.4-0.5-0.8-0.4
		c-1.2,0-2.3-0.3-3.3-0.6c-1.9-0.5-3.2-2.9-3-4.8s1.7-3.6,3.6-3.9C37.2,0,37.9,0,38.5,0c32.8,0,65.6,0,98.3,0c0.9,0,1.8,0,2.6,0.4
		c1.7,0.8,2.8,2,2.6,4c-0.1,0.6,0,1.2,0.1,1.7c-1.3,2.1-3.1,3-5.6,2.8c-1.8-0.2-3.6,0-5.4,0c-1.5,0-2.9,0-4.3,0
		c-0.3,0.8-0.2,1.5-0.2,2.1c0,7.6,0,15.1,0,22.7c0,3-0.3,3.3-3.2,3.5c-0.1,0-0.2,0.1-0.4,0.4c0.8,1.2,0.4,2.7,0.6,4.2
		c2.1,1.8,4.3,3.7,6.1,5.9c1.1,0.9,1.5,2.3,2.7,3.1c0,0.2,0,0.5,0.2,0.7c1.6,2.1,3.2,4.3,4.8,6.4c5.6,7.4,9.6,15.4,10.6,24.9
		c0.4,3.6-0.1,6.9-0.7,10.4c-0.8,4.2-2.9,7.9-5.5,11.2c-2.4,3.2-5.1,6.2-8.9,7.7c-1.3,0.5-2.5,1.3-3.4,2.4c-2.2,2.5-4.4,5-7,7.2
		c-1.5,1.3-3,2.6-4.3,4.1c0.6,1.7,0.9,1.8,2.8,1.3c2.7-0.7,5.4-1.3,8.2-1.7c1.1-0.2,2.6-0.3,3.2-0.5c2.8,0,5.7,0,8.5,0
		c5.7,0,11.1,1.3,16.4,3.4c1.3,0.5,2.7,1.1,4,1.7c1.9,0.9,2,1.2,1.4,3.2c-0.1,0.2,0,0.4,0,0.6c-1.6,4-3.1,8-2.3,12.4
		c0.4,2.3,1,4.6,2.3,6.6c1.3,0.1,2.6,0.1,3.9,0c1,0.2,2-0.1,3.1,0.2c3,1,4.7,3.1,5.6,6c0,0.4-0.1,0.8-0.1,1.1c0,3.9-1.5,6-4.9,7.5
		c-1.1,0.5-2.3,0.6-3.6,0.6c-22.5,0-44.9,0-67.4,0c-0.7,0-1.4,0-2.1,0.1c-1,0-1.6-0.3-2.7-0.8c-0.9-1.1-1.7-2.2-2.3-3.4
		c-1.1-2.4-5.2-3-7-1.8c-1.1,0.7-1.8,1.7-2.2,2.8c-0.5,1.3-1.4,2-2.6,2.6c-1.1,0.5-2.1,0.6-3.2,0.6c-22.7,0-45.4,0-68.1,0
		c-0.8,0-1.5-0.1-2.3,0.1c-1.6-0.6-3.1-1.3-4.4-2.6c-1.9-2.1-2.8-4.4-2-7.1c1-3.2,3-5.6,6.7-5.9c1.9-0.1,3.7,0,5.6,0
		c4.1-7.2,2.5-14.1-0.5-20.8c0.6-2.1,2.6-2.4,4.1-3.1c3.7-1.7,7.7-2.8,11.8-3.5c1.5-0.2,3-0.6,4.6-0.5c2.9,0.1,5.8,0,8.7,0
		c3.2,0.1,6.3,0.7,9.4,1.4c1.8,0.4,3.7,0.8,5.4,1.3c0.6-0.2,0.6-0.8,1.1-1.4c-3.6-2.8-6.6-6.4-10.1-9.4 M49.3,36.8
		c-0.6-0.6-0.4-1.4-0.4-2.2c0-7.8,0-15.6,0-23.4c0-0.7,0.2-1.4-0.2-2.1c-1.8,0-3.6,0-5.4,0c0,2.1,0,4.1,0,6.1c0,8,0,16,0,24.1
		c2.5,2.3,2.6,3.9,0.2,7.1c0.2,0.6,0.3,1.2,0.5,1.8c-0.1,0.6,0,0.9,0.7,0.8c1.6-1.6,3.1-3.3,4.7-4.9c0.8-0.7,1.6-1.5,2.3-2.2
		c-0.3-1.6,0.5-2.9,0.6-4.4C51.3,37.1,50.2,37.6,49.3,36.8z M17.6,138.6c0,0.2,0,0.3,0.3,0.2c0.8,0,1.7,0.1,2.5,0.1c8,0,16,0,24.1,0
		c1.1,0,2.3-0.1,2.5,1.4c-0.3,1.6-1.5,1.7-2.8,1.7c-8,0-15.9,0-23.9,0c-0.6,0-1.3-0.1-2,0.2c0,1.3-0.2,2.5,0.1,3.9
		c0.8,0,1.5,0,2.2,0c4.7,0,9.4,0.1,14.2,0.1c0.8,0,1.6-0.1,2.1,0.8c0.1,0.6,0.2,1.2-0.4,2.1c-6.1,0.3-12.4,0-18.7,0.2
		c-0.8,1-1,2.2-1.1,3.4c20.6,0,41.1,0,61.6,0c0.6-1.7,1.9-2.8,3.1-4s2.9-1.5,4.6-2.1c-3-1.9-5.9-3.7-8.8-5.5c-1.1,3-3.5,4.4-6.3,4.3
		c-2.8-0.2-4.8-2.2-5.6-4.8c-0.7-0.2-1.1-0.1-1.5,0c-4.2,1.4-8-2.5-7.8-6c0.1-1.2,0-2.4,0-3.9c-13.6-3.7-26.9-4.4-40.1,1.8
		C16.4,134.6,17,136.6,17.6,138.6z M55.1,9.3c-1,0-2-0.1-3,0.1c0,8.3,0,16.4,0,24.7c1.1,0,2.1,0.3,3-0.4c0.5,0.6,1.2,0.4,1.8,0.4
		c5.1,0,10.2,0,15.3,0c1,0,1.9-0.1,2.8,0.1c0.6,0.4,0.7,0.9,1,1.4c-0.6,1.3-1.6,1.6-3,1.6c-5.2-0.1-10.3,0-15.5,0
		c-0.6,0-1.3-0.2-1.9,0.2c-0.4,1.3-0.8,2.6-0.9,4.1c-0.1,1.5-0.6,2.9-1.9,3.8c-2.6,1.6-4.2,4.3-6.4,6.4c-1.5,1.5-2.1,3.3-1.7,5.4
		c0.7,3.8,1.1,7.6,1.2,11.4c0,1.3-0.6,2-1.7,2.5c-1.1,0.5-2.2,0.4-3.4,0.4c-2.6,0-4.2-2-3.6-4.5c0.2-0.8,0.1-1.5,0-2.3
		c-0.7,0.2-0.9,0.7-1.2,1.2c-2.4,4.7-4.7,9.4-5.4,14.8c-0.5,3.6-0.5,7.1,0.3,10.5c1.8,7.5,6.3,13.1,12.2,17.9
		c0.2,0.2,0.6,0.5,1.2,0.2c0-3.5,0-7.1,0-10.7s-0.1-7.3,0.1-10.9c2.6-0.5,3-0.2,3,2c0,5.2,0,10.3,0,15.5c0,2.4,0,4.8,0,7
		c3,3.1,5.8,6.1,8.9,8.9c0.7,1.3,2.1,1.8,3.2,2.8c3.9-0.6,7.3,0.1,8.7,4.4c0.6,0.2,1,0,1.5-0.1c3.9-0.9,7.9,1.5,7.6,5.9
		c-0.1,1.1,0,2.3,0,3.4c3,1.8,5.8,3.8,8.8,5.5c1.2,0.7,2.1,0.7,3.2,0c1.8-1.1,3.5-2.3,5.3-3.4c2.3-1.4,3.9-2.9,3.5-6
		c-0.3-2.5,2.8-5.9,6-5.7c1.1,0.1,2.1,0.8,3.2,0.3c2.3-5,4.6-4.8,8.2-4.3c1.1-1.4,2.9-2.1,3.9-3.6c2.6-2.4,5-5,7.5-7.5
		c1-1,1.5-2.1,1.4-3.6c-0.1-6.5,0-12.9,0-19.4c0-0.9-0.1-1.8,0.6-2.6c0.7-0.1,1.4-0.1,2.4,0.3c0.1,2.3,0,4.7,0.1,7.1
		c0,2.4,0,4.8,0,7.2c0,2.4,0,4.9,0,7.3c0.3,0,0.4,0,0.5,0c0.3-0.1,0.6-0.3,0.9-0.4c2.4-1.2,4.1-3.3,5.8-5.3
		c5.7-6.5,7.1-14.2,6.2-22.3c-0.7-6.4-3.6-12.2-7-17.7c-2-3.1-4.5-5.8-6.5-8.8c-2.1-3.1-4.5-5.9-7.2-8.4c-1.2-1.1-2.7-2-3.6-3.2
		c-0.2-2.1,0.3-4.1-0.7-5.9c-0.6-0.2-1.3-0.1-1.9-0.1c-5.2,0-10.5,0-15.7,0c-1.7,0-2-0.3-2.4-1.9c0.5-1.2,1.5-1.2,2.6-1.2
		c6.3,0,12.7,0,19,0c0.7,0,1.4,0.2,2-0.2c0-8.3,0-16.5,0-24.8c-0.4,0-0.8-0.1-1.1-0.1c-21.9,0-43.8,0-65.7,0
		C56,8.9,55.5,8.8,55.1,9.3z M42.6,165.3c11.3,0,22.6,0,34,0c1.9,0,3-0.5,3.9-2.3c1.5-3.2,4.3-4.6,7.9-4.3c3.1,0.2,5.4,1.9,6.8,4.6
		c0.7,1.6,1.8,1.9,3.4,1.9c22.8,0,45.5,0,68.3,0c0.8,0,1.5-0.1,2.3-0.4c1.9-0.7,3-2.2,3-4.2c0-2.5-0.7-3.5-2.9-4.4
		c-1-0.4-2-0.4-3-0.4c-22.4,0-44.9,0-67.3,0c-2.2,0-3.7-0.6-4.9-2.7c-2.8-4.9-9.9-4.4-12.2-0.3c-1.2,2.2-2.9,3-5.4,3
		c-22.2-0.1-44.5,0-66.7,0c-0.8,0-1.7,0-2.5,0.1c-2.6,0.4-4.5,3.4-3.6,5.9c0.8,2.2,2.4,3.4,4.8,3.4
		C19.7,165.3,31.1,165.3,42.6,165.3z M138.9,146.3c6-0.4,12.2,0,18.5-0.3c-0.7-1.4-0.6-2.6-0.1-3.9c-9.4,0-18.5,0-27.6,0
		c-0.9-0.6-1.4-1.2-1-2.1c0.4-0.9,1.2-1.1,2.1-1c0.4,0,0.8,0,1.2,0c7.8,0,15.5,0,23.3,0c0.8,0,1.6,0.1,2.3-0.1c0.9-1.9,1-4,2.1-5.8
		c-9.7-6.4-30.4-6.2-40.4-1.9c0,1.3-0.2,2.6,0,3.8c0.5,3.2-3.3,6.1-6.1,6c-1,0-1.9-0.7-3.1-0.4c-0.8,2.9-3,4.5-5.7,4.9
		c-3,0.4-4.8-1.9-6.3-4.3c-2.9,1.8-5.7,3.6-8.6,5.4c0.2,0.2,0.3,0.4,0.4,0.4c2.8,0.5,5,2,6.5,4.2c0.9,1.3,1.8,1.6,3.2,1.6
		c19.3,0,38.6,0,57.8,0c0.6,0,1.2,0.2,1.7-0.4c-0.4-1-0.8-2.1-1.1-3.2c-5.6,0-11.1,0-16.6,0c-0.6,0-1.2,0-1.7-0.1
		c-0.7-0.1-1.1-0.6-1.3-1.2C138.2,147.2,138.5,146.8,138.9,146.3z M36.1,4.3c0.3,1.6,1.4,1.5,2.5,1.5c11.5,0,23,0,34.5,0
		c21.1,0,42.2,0,63.2,0c0.8,0,1.7,0.3,2.4-0.4c0.2-0.6,0.2-1.2,0-1.8c-0.7-0.7-1.5-0.4-2.2-0.4c-32.5,0-65.1,0-97.6,0
		c-0.3,0-0.7,0-1,0C37.1,3.1,36.5,3.4,36.1,4.3z M71.2,142.4c3.1-1.3,3.3-1.6,3.3-4.7c0-1.1,0-2.2,0-3.3c-0.1-2.3-1.6-3.6-3.8-3.2
		c-1.2,0.2-1.7,1.1-2.3,1.8c0,2.5,0,4.9,0,7.2C69.1,141.3,70,142.1,71.2,142.4z M110.3,135.9c0.2,0.3,0.4,0.4,0.6,0.6
		c1,1.1,2.2,1.6,3.6,1s2-1.8,1.9-3.3c0-1.5,0.1-3,0-4.5c-0.1-2-1.3-3-3.3-2.9c-1.9,0-2.8,1-2.9,3.1
		C110.2,131.9,110.3,133.9,110.3,135.9z M65.2,132.3c0-1,0-1.7,0-2.5c-0.1-1.7-1.1-2.8-2.7-2.9c-2.1-0.1-3.3,0.8-3.5,2.7
		c-0.1,1.8-0.1,3.6,0,5.4c0.1,1.5,1.3,2.6,2.8,2.8c1.6,0.1,2.5-0.6,3.1-2.2C65.4,134.4,65.1,133.3,65.2,132.3z M102.8,142.1
		c0.3,0,0.7,0,1,0c2,0,2.9-0.5,3.2-2.5c0.3-2,0.4-4.1-0.1-6.1c-0.5-1.7-1.1-2.2-2.6-2.2c-1.9,0-3.1,1.1-3.2,3c-0.1,1.4,0,2.7,0,4.1
		C100.9,139.8,101.4,141.1,102.8,142.1z"/>
	<path class="st1" d="M56.2,121.1c-3.1-2.7-5.9-5.8-8.9-8.9c0-2.3,0-4.6,0-7c0-5.2,0-10.3,0-15.5c0-2.2-0.5-2.6-3-2
		c-0.2,3.6-0.1,7.2-0.1,10.9c0,3.6,0,7.2,0,10.7c-0.6,0.3-0.9,0-1.2-0.2c-5.8-4.8-10.4-10.4-12.2-17.9c-0.8-3.4-0.7-6.9-0.3-10.5
		c0.7-5.4,3-10.1,5.4-14.8c0.3-0.5,0.5-1,1.2-1.2c0.1,0.8,0.2,1.6,0,2.3c-0.6,2.5,1,4.5,3.6,4.5c1.2,0,2.3,0.1,3.4-0.4
		c1.1-0.5,1.7-1.2,1.7-2.5c-0.1-3.9-0.5-7.6-1.2-11.4c-0.4-2.1,0.2-3.9,1.7-5.4c2.1-2.1,3.8-4.8,6.4-6.4c1.4-0.9,1.8-2.3,1.9-3.8
		c0.1-1.4,0.5-2.7,0.9-4.1c0.6-0.4,1.3-0.2,1.9-0.2c5.2,0,10.3-0.1,15.5,0c1.3,0,2.4-0.3,3-1.6c1.1,0,2.1,0.2,3.1-0.3
		c0.5,1.4,1.5,1.9,3,1.9c3.8-0.1,7.6-0.1,11.4,0c1.1,0,2.1-0.2,2.4-1.5c1.2-0.1,2.6,0.3,3.8-0.4c0.4,1.6,0.7,1.8,2.4,1.9
		c5.2,0,10.5,0,15.7,0c0.6,0,1.3-0.1,1.9,0.1c1,1.8,0.5,3.8,0.7,5.9c0.9,1.2,2.4,2.1,3.6,3.2c2.7,2.6,5.1,5.3,7.2,8.4
		c2,3,4.6,5.7,6.5,8.8c3.5,5.5,6.3,11.2,7,17.7c0.9,8.1-0.5,15.9-6.2,22.3c-1.8,2-3.4,4-5.8,5.3c-0.3,0.1-0.6,0.3-0.9,0.4
		c-0.1,0-0.2,0-0.5,0c0-2.4,0-4.9,0-7.3s0-4.8,0-7.2c0-2.4,0.1-4.9-0.1-7.1c-1.1-0.4-1.8-0.4-2.4-0.3c-0.7,0.8-0.6,1.7-0.6,2.6
		c0,6.5,0,12.9,0,19.4c0,1.5-0.4,2.6-1.4,3.6c-2.5,2.5-4.9,5.1-7.5,7.5c-0.2-0.2-0.4-0.4-0.5-0.6c-3.1-5.6-7.6-9.7-13.3-12.5
		c-4.1-2.1-8.4-3.2-13-3.7c-3.9-0.5-7.7-0.4-11.5,0.2c-5.8,0.9-11.1,3.1-15.8,6.6C61.3,113.1,58.1,116.6,56.2,121.1z M81.5,79.1
		c-0.1-0.6,0.2-1,0.4-1.4c2.4-3.8,3.1-7.9,2.4-12.3c-0.6-3.7-2.1-6.8-4.6-9.4c-5.9-6.2-15.6-7.3-22.9-2.4c-5,3.3-9.4,12.1-7.3,18.8
		c1.9,6,5.3,10.4,11.2,12.6c2.7,1,5.4,1.6,8.4,1s5.7-1.8,8.4-3.3c-0.2,1.4-0.5,2.7-0.1,4.1c1.2,4.1,3.7,7.1,7,9.6
		c3.1,2.3,3.1,2.4,6.1,0.2c2.6-1.9,4.8-4.1,6.3-7.1c1.1-2.2,0.9-4.5,1-6.8c0.4,0,0.7,0.3,1,0.5c3,1.8,6.2,3,9.8,3
		c2.1,0,4.2-0.6,6.2-1.3c8.6-3.3,12.9-11.6,11-20.4c-1.7-7.7-6.6-12.5-14.8-13.7c-5.8-0.9-10.7,0.8-14.8,4.7
		c-6,5.6-7.3,14.7-2.9,22.1c0.3,0.5,0.7,0.9,0.6,1.6C89.8,79.3,85.7,79.5,81.5,79.1z"/>
	<path class="st2" d="M79.2,35.3c-1,0.6-2.1,0.3-3.1,0.3c-0.3-0.5-0.4-1.1-1-1.4c-0.9-0.2-1.9-0.1-2.8-0.1c-5.1,0-10.2,0-15.3,0
		c-0.6,0-1.3,0.3-1.8-0.4c0-8.1,0-16.3,0-24.4C55.5,8.8,56,9,56.5,9c21.9,0,43.8,0,65.7,0c0.3,0,0.6,0,1.1,0.1c0,8.3,0,16.5,0,24.8
		c-0.6,0.5-1.3,0.2-2,0.2c-6.3,0-12.7,0-19,0c-1.1,0-2.1,0.1-2.6,1.2c-1.2,0.7-2.5,0.2-3.8,0.4c-0.1-1.4-0.9-1.6-2.1-1.6
		c-4,0-8,0.1-11.9,0C80.8,34,79.9,34.3,79.2,35.3z"/>
	<path class="st3" d="M42.6,165.3c-11.5,0-22.9,0-34.3,0c-2.4,0-4-1.2-4.8-3.4c-0.9-2.5,1-5.5,3.6-5.9c0.8-0.1,1.7-0.1,2.5-0.1
		c22.2,0,44.5,0,66.7,0c2.5,0,4.2-0.8,5.4-3c2.3-4.1,9.4-4.6,12.2,0.3c1.2,2,2.7,2.7,4.9,2.7c22.4,0,44.9,0,67.3,0c1,0,2-0.1,3,0.4
		c2.1,0.9,2.9,1.9,2.9,4.4c0,2-1.1,3.6-3,4.2c-0.7,0.3-1.5,0.4-2.3,0.4c-22.8,0-45.5,0-68.3,0c-1.6,0-2.7-0.4-3.4-1.9
		c-1.3-2.8-3.6-4.4-6.8-4.6c-3.6-0.3-6.3,1.1-7.9,4.3c-0.9,1.8-2,2.3-3.9,2.3C65.2,165.3,53.9,165.3,42.6,165.3z"/>
	<path class="st4" d="M56.2,121.1c1.9-4.4,5-7.9,8.9-10.8c4.7-3.5,10.1-5.7,15.8-6.6c3.8-0.6,7.6-0.6,11.5-0.2
		c4.6,0.6,8.9,1.7,13,3.7c5.7,2.8,10.2,6.9,13.3,12.5c0.1,0.2,0.3,0.4,0.5,0.6c-1,1.6-2.8,2.2-3.9,3.6c-3.6-0.5-5.9-0.7-8.2,4.3
		c-1.1,0.5-2.1-0.2-3.2-0.3c-3.2-0.2-6.3,3.2-6,5.7c0.4,3.1-1.2,4.6-3.5,6c-1.8,1.1-3.5,2.3-5.3,3.4c-1,0.6-2,0.7-3.2,0
		c-2.9-1.7-5.8-3.6-8.8-5.5c0-1.1-0.1-2.3,0-3.4c0.3-4.4-3.8-6.8-7.6-5.9c-0.5,0.1-0.9,0.3-1.5,0.1c-1.4-4.3-4.8-5-8.7-4.4
		C58.4,122.9,57,122.3,56.2,121.1z"/>
	<path class="st5" d="M138.9,146.3c-0.3,0.6-0.7,0.9-0.6,1.6c0.2,0.6,0.6,1,1.3,1.2c0.6,0.1,1.1,0.1,1.7,0.1c5.5,0,11,0,16.6,0
		c0.4,1.1,0.8,2.2,1.1,3.2c-0.5,0.6-1.2,0.4-1.7,0.4c-19.3,0-38.6,0-57.8,0c-1.4,0-2.3-0.3-3.2-1.6c-1.5-2.3-3.7-3.8-6.5-4.2
		c-0.1,0-0.2-0.2-0.4-0.4c2.8-1.8,5.7-3.6,8.6-5.4c1.6,2.4,3.3,4.7,6.3,4.3c2.7-0.4,4.9-2,5.7-4.9c1.1-0.3,2.1,0.3,3.1,0.4
		c2.8,0.1,6.6-2.8,6.1-6c-0.2-1.3,0-2.6,0-3.8c10-4.3,30.7-4.5,40.4,1.9c-1.1,1.8-1.1,3.9-2.1,5.8c-0.8,0.2-1.6,0.1-2.3,0.1
		c-7.8,0-15.5,0-23.3,0c-0.4,0-0.8,0-1.2,0c-0.9-0.1-1.7,0.1-2.1,1c-0.4,1,0.2,1.6,1,2.1c9.1,0,18.2,0,27.6,0
		c-0.6,1.3-0.6,2.5,0.1,3.9C151,146.2,144.9,145.9,138.9,146.3z"/>
	<path class="st5" d="M17.6,138.6c-0.6-2-1.2-3.9-1.8-6.1c13.3-6.1,26.6-5.5,40.1-1.8c0,1.4,0,2.7,0,3.9c-0.2,3.5,3.6,7.4,7.8,6
		c0.4-0.1,0.9-0.2,1.5,0c0.8,2.6,2.8,4.6,5.6,4.8c2.8,0.2,5.1-1.3,6.3-4.3c2.9,1.8,5.7,3.6,8.8,5.5c-1.7,0.6-3.4,0.9-4.6,2.1
		c-1.2,1.1-2.5,2.2-3.1,4c-20.5,0-41,0-61.6,0c0-1.2,0.3-2.4,1.1-3.4c6.3-0.2,12.6,0.1,18.7-0.2c0.7-0.9,0.5-1.5,0.4-2.1
		c-0.5-0.9-1.3-0.8-2.1-0.8c-4.7,0-9.4-0.1-14.2-0.1c-0.7,0-1.4,0-2.2,0c-0.3-1.4-0.1-2.6-0.1-3.9c0.8-0.3,1.4-0.2,2-0.2
		c8,0,15.9,0,23.9,0c1.3,0,2.5-0.1,2.8-1.7c-0.3-1.5-1.4-1.4-2.5-1.4c-8,0-16,0-24.1,0c-0.8,0-1.7-0.1-2.5-0.1
		C17.8,138.7,17.7,138.6,17.6,138.6z"/>
	<path class="st2" d="M36.1,4.3c0.4-0.9,1-1.2,1.9-1.2c0.3,0,0.7,0,1,0c32.5,0,65.1,0,97.6,0c0.8,0,1.6-0.2,2.2,0.4
		c0.2,0.6,0.3,1.2,0,1.8c-0.7,0.7-1.6,0.4-2.4,0.4c-21.1,0-42.2,0-63.2,0c-11.5,0-23,0-34.5,0C37.5,5.8,36.4,5.9,36.1,4.3z"/>
	<path class="st6" d="M43.2,15.1c0.9,0,1.8-0.1,2.8,0.1c0,10,0,20,0,30.2c-0.9,0.5-1.4,1.6-2.1,2.6c-0.2-0.6-0.3-1.2-0.5-1.8
		c2.3-3.2,2.2-4.8-0.2-7.1C43.2,31.2,43.2,23.1,43.2,15.1z"/>
	<path class="st6" d="M55.1,9.3c0,8.1,0,16.3,0,24.4c-0.9,0.7-1.9,0.3-3,0.4c0-8.3,0-16.4,0-24.7C53.1,9.2,54.1,9.3,55.1,9.3z"/>
	<path class="st2" d="M71.2,142.4c-1.2-0.3-2.1-1.1-2.9-2.2c0-2.3,0-4.7,0-7.2c0.6-0.7,1.1-1.6,2.3-1.8c2.2-0.4,3.8,0.9,3.8,3.2
		c0,1.1,0,2.2,0,3.3C74.5,140.8,74.3,141.1,71.2,142.4z"/>
	<path class="st2" d="M110.3,135.9c0-2.1,0-4,0-5.9c0-2.1,1-3.1,2.9-3.1c2,0,3.2,1,3.3,2.9c0.1,1.5,0,3,0,4.5s-0.5,2.7-1.9,3.3
		s-2.6,0.2-3.6-1C110.7,136.4,110.5,136.2,110.3,135.9z"/>
	<path class="st2" d="M65.2,132.3c-0.2,0.9,0.2,2.1-0.2,3.2c-0.6,1.6-1.6,2.4-3.1,2.2c-1.4-0.1-2.7-1.3-2.8-2.8
		c-0.1-1.8-0.1-3.6,0-5.4c0.1-1.9,1.4-2.8,3.5-2.7c1.6,0.1,2.6,1.2,2.7,2.9C65.3,130.6,65.2,131.4,65.2,132.3z"/>
	<path class="st2" d="M102.8,142.1c-1.4-1-1.9-2.2-1.9-3.8c0.1-1.4,0-2.7,0-4.1c0.1-2,1.3-3.1,3.2-3c1.5,0,2.1,0.5,2.6,2.2
		c0.6,2,0.4,4.1,0.1,6.1s-1.2,2.5-3.2,2.5C103.5,142.1,103.2,142.1,102.8,142.1z"/>
	<path class="st6" d="M49.3,43.9c0-2.4,0-4.8,0-7.1c0.8,0.8,1.9,0.3,3,0.6c-0.1,1.5-0.9,2.8-0.6,4.4C50.9,42.4,50.1,43.2,49.3,43.9z
		"/>
	<path class="st7" d="M17.6,138.6c0.1,0,0.2,0.1,0.3,0.2C17.6,138.9,17.5,138.8,17.6,138.6z"/>
	<path class="st5" d="M94,79.1c0.1-0.6-0.3-1.1-0.6-1.6c-4.4-7.4-3.1-16.4,2.9-22.1c4.1-3.9,9-5.6,14.8-4.7
		c8.1,1.2,13.1,6,14.8,13.7c1.9,8.7-2.4,17.1-11,20.4c-2,0.8-4.1,1.3-6.2,1.3c-3.6,0-6.8-1.2-9.8-3c-0.3-0.2-0.6-0.5-1-0.5
		C97,80.9,96.2,79.3,94,79.1z M108.4,58.2c-5.7-0.7-10.2,5.2-10.3,9.8c-0.1,5.5,5,10.6,10.2,10.4c5.9-0.3,10.1-4.3,10.3-10.1
		C118.9,62.8,114.3,57.9,108.4,58.2z"/>
	<path class="st5" d="M77.6,82.6c-2.7,1.4-5.3,2.7-8.4,3.3c-3,0.6-5.8,0-8.4-1c-5.9-2.2-9.3-6.5-11.2-12.6
		c-2.1-6.7,2.3-15.4,7.3-18.8c7.3-4.9,17-3.9,22.9,2.4c2.5,2.6,4,5.7,4.6,9.4c0.7,4.5,0,8.5-2.4,12.3c-0.3,0.4-0.5,0.9-0.4,1.4
		C79.1,79.1,78.2,80.6,77.6,82.6z M56.7,68.1c-0.5,5.4,5.1,10.7,10.4,10.4c5.8-0.3,9.8-4.7,9.8-11.3c0-5.2-4.6-8.9-10.9-9
		C61.5,58.1,56.3,62.9,56.7,68.1z"/>
	<path class="st0" d="M77.6,82.6c0.6-2,1.5-3.6,3.9-3.6c4.2,0.4,8.3,0.3,12.5,0c2.2,0.2,3,1.9,3.9,3.5c-0.1,2.3,0,4.6-1,6.8
		c-1.4,3-3.7,5.2-6.3,7.1c-2.9,2.2-3,2.1-6.1-0.2c-3.3-2.5-5.8-5.5-7-9.6C77.1,85.3,77.4,84,77.6,82.6z M87.7,94.8
		c2.4-1.7,4.4-3.5,5.9-5.8c1.4-2.1,1.4-4.3,0.8-6.6c-4.5,0-8.9,0-13.1,0c-1.1,1.1-1.2,2.4-0.9,3.5C81.7,89.8,84.3,92.6,87.7,94.8z"
		/>
	<path class="st0" d="M79.2,35.3c0.7-1,1.6-1.3,2.8-1.3c4,0.1,7.9,0.1,11.9,0c1.2,0,2,0.3,2.1,1.6c-0.3,1.3-1.2,1.5-2.4,1.5
		c-3.8,0-7.6-0.1-11.4,0C80.7,37.2,79.7,36.8,79.2,35.3z"/>
	<path class="st0" d="M108.4,58.2c5.9-0.3,10.4,4.6,10.3,10.2c-0.2,5.8-4.4,9.8-10.3,10.1c-5.2,0.3-10.3-4.8-10.2-10.4
		C98.2,63.4,102.8,57.5,108.4,58.2z"/>
	<path class="st0" d="M56.7,68.1c-0.4-5.2,4.8-10,9.3-9.9c6.3,0.1,10.9,3.8,10.9,9c0,6.6-4,11-9.8,11.3
		C61.8,78.7,56.2,73.5,56.7,68.1z"/>
	<path class="st3" d="M87.7,94.8c-3.4-2.2-6.1-5-7.3-8.9c-0.4-1.2-0.2-2.4,0.9-3.5c4.2,0,8.6,0,13.1,0C95,84.8,95,87,93.6,89
		C92.1,91.3,90.1,93.1,87.7,94.8z"/>
</g>
</svg>
