<svg width="32" height="34" viewBox="0 0 32 34" fill="none" xmlns="http://www.w3.org/2000/svg">
<path d="M2.11567 0.0778313C1.67989 0.184113 1.04026 0.559639 0.730996 0.899738C0.576362 1.06979 0.344412 1.42406 0.224922 1.68622L0 2.16094V17.012V31.8559L0.260066 32.3944C0.576362 33.0392 0.984033 33.4359 1.63771 33.7477L2.10864 33.9744L13.0384 33.9957C20.4609 34.0099 24.151 33.9886 24.5446 33.939C26.6111 33.6698 28.4456 32.6353 29.7248 31.0269C30.245 30.368 30.8776 29.1705 31.0955 28.4407C31.6929 26.393 31.5383 24.4516 30.6105 22.5669C29.9076 21.1286 28.8322 19.9595 27.5389 19.2297L26.9555 18.9038V13.0087V7.12073L23.42 3.56385L19.8915 -0.000106812L11.1407 0.00697708C6.15021 0.0140648 2.27031 0.0424042 2.11567 0.0778313ZM19.0973 3.45757L19.1184 5.78159L19.3784 6.32008C19.6947 6.96485 20.1024 7.36164 20.7561 7.67339L21.227 7.90013L23.5325 7.92138L25.8309 7.94264V13.2142V18.4857L25.6411 18.422C24.8468 18.1527 23.3989 18.0748 22.3516 18.2448C18.9778 18.7975 16.3631 21.4333 15.8148 24.8343C15.5477 26.4922 15.8078 28.1219 16.595 29.6807C17.1925 30.871 18.0711 31.8842 19.1465 32.6211L19.519 32.8762H11.0352C4.57576 32.8762 2.47414 32.8549 2.25625 32.7912C1.86966 32.6778 1.28627 32.0897 1.17381 31.7C1.04729 31.2749 1.04729 2.73486 1.17381 2.30974C1.27924 1.94838 1.86966 1.33904 2.21408 1.22567C2.3898 1.16898 4.9272 1.14773 10.7681 1.14064L19.0762 1.13356L19.0973 3.45757ZM23.3567 6.78772C22.2181 6.80189 21.6206 6.78063 21.4027 6.71686C20.988 6.6035 20.4117 6.03666 20.2922 5.62571C20.2359 5.4344 20.2078 4.76129 20.2078 3.64179V1.94838L22.5976 4.35742L24.9874 6.76646L23.3567 6.78772ZM25.2053 19.4777C26.4846 19.8107 27.4545 20.3846 28.3964 21.3553C29.2891 22.2764 29.8514 23.2967 30.1677 24.5579C30.3574 25.3161 30.3363 26.9245 30.1255 27.7038C29.774 29.0288 29.282 29.8932 28.3261 30.8569C27.3702 31.8205 26.5197 32.3164 25.1983 32.6778C24.4181 32.8904 22.9139 32.9045 22.1126 32.7132C20.8193 32.4015 19.7299 31.785 18.8021 30.8285C18.1343 30.1483 17.6564 29.4256 17.333 28.6179C16.9675 27.6968 16.8762 27.2079 16.8762 26.0742C16.8691 24.9901 16.9886 24.3524 17.3401 23.488C18.2398 21.327 20.2711 19.7115 22.5765 19.3431C23.2091 19.2439 24.5938 19.3147 25.2053 19.4777Z" fill="white"/>
<path d="M3.51508 6.98097C3.40261 7.08725 3.33936 7.23604 3.33936 7.37067C3.33936 7.50529 3.40261 7.65408 3.51508 7.76036L3.68377 7.9375H7.27549H10.8672L11.0359 7.76036C11.1484 7.65408 11.2116 7.50529 11.2116 7.37067C11.2116 7.23604 11.1484 7.08725 11.0359 6.98097L10.8672 6.80383H7.27549H3.68377L3.51508 6.98097Z" fill="white"/>
<path d="M3.51508 10.3814C3.40261 10.4876 3.33936 10.6364 3.33936 10.7711C3.33936 10.9057 3.40261 11.0545 3.51508 11.1608L3.68377 11.3379H5.58857H7.49338L7.66207 11.1608C7.77453 11.0545 7.83779 10.9057 7.83779 10.7711C7.83779 10.6364 7.77453 10.4876 7.66207 10.3814L7.49338 10.2042H5.58857H3.68377L3.51508 10.3814Z" fill="white"/>
<path d="M9.13641 10.3814C9.02395 10.4876 8.96069 10.6364 8.96069 10.7711C8.96069 10.9057 9.02395 11.0545 9.13641 11.1608L9.30511 11.3379H16.2707H23.2362L23.4049 11.1608C23.5174 11.0545 23.5806 10.9057 23.5806 10.7711C23.5806 10.6364 23.5174 10.4876 23.4049 10.3814L23.2362 10.2042H16.2707H9.30511L9.13641 10.3814Z" fill="white"/>
<path d="M3.51508 13.7818C3.40261 13.888 3.33936 14.0368 3.33936 14.1714C3.33936 14.3061 3.40261 14.4549 3.51508 14.5611L3.68377 14.7383H9.52471H15.3656L15.5343 14.5611C15.7663 14.3344 15.7663 14.0085 15.5343 13.7818L15.3656 13.6046H9.52471H3.68377L3.51508 13.7818Z" fill="white"/>
<path d="M17.0082 13.7818C16.8958 13.888 16.8325 14.0368 16.8325 14.1714C16.8325 14.3061 16.8958 14.4549 17.0082 14.5611L17.1769 14.7383H20.2063H23.2358L23.4045 14.5611C23.5169 14.4549 23.5802 14.3061 23.5802 14.1714C23.5802 14.0368 23.5169 13.888 23.4045 13.7818L23.2358 13.6046H20.2063H17.1769L17.0082 13.7818Z" fill="white"/>
<path d="M3.51508 17.1821C3.40261 17.2884 3.33936 17.4372 3.33936 17.5718C3.33936 17.7065 3.40261 17.8553 3.51508 17.9615L3.68377 18.1387H7.27549H10.8672L11.0359 17.9615C11.1484 17.8553 11.2116 17.7065 11.2116 17.5718C11.2116 17.4372 11.1484 17.2884 11.0359 17.1821L10.8672 17.005H7.27549H3.68377L3.51508 17.1821Z" fill="white"/>
<path d="M12.5112 17.1821C12.3987 17.2884 12.3354 17.4372 12.3354 17.5718C12.3354 17.7065 12.3987 17.8553 12.5112 17.9615L12.6799 18.1387H15.147H17.6141L17.7828 17.9615C17.8952 17.8553 17.9585 17.7065 17.9585 17.5718C17.9585 17.4372 17.8952 17.2884 17.7828 17.1821L17.6141 17.005H15.147H12.6799L12.5112 17.1821Z" fill="white"/>
<path d="M3.51508 20.5825C3.40261 20.6888 3.33936 20.8376 3.33936 20.9722C3.33936 21.1069 3.40261 21.2556 3.51508 21.3619L3.68377 21.5391H8.9624H14.241L14.4097 21.3619C14.6417 21.1352 14.6417 20.8093 14.4097 20.5825L14.241 20.4054H8.9624H3.68377L3.51508 20.5825Z" fill="white"/>
<path d="M3.51508 23.9849C3.40261 24.0912 3.33936 24.24 3.33936 24.3746C3.33936 24.5092 3.40261 24.658 3.51508 24.7643L3.68377 24.9414H5.58857H7.49338L7.66207 24.7643C7.77453 24.658 7.83779 24.5092 7.83779 24.3746C7.83779 24.24 7.77453 24.0912 7.66207 23.9849L7.49338 23.8077H5.58857H3.68377L3.51508 23.9849Z" fill="white"/>
<path d="M9.13641 23.9849C9.02395 24.0912 8.96069 24.24 8.96069 24.3746C8.96069 24.5092 9.02395 24.658 9.13641 24.7643L9.30511 24.9414H11.2099H13.1147L13.2834 24.7643C13.3959 24.658 13.4591 24.5092 13.4591 24.3746C13.4591 24.24 13.3959 24.0912 13.2834 23.9849L13.1147 23.8077H11.2099H9.30511L9.13641 23.9849Z" fill="white"/>
<path d="M3.51508 27.3853C3.40261 27.4915 3.33936 27.6403 3.33936 27.775C3.33936 27.9096 3.40261 28.0584 3.51508 28.1647L3.68377 28.3418H6.15088H8.61799L8.78668 28.1647C8.89914 28.0584 8.9624 27.9096 8.9624 27.775C8.9624 27.6403 8.89914 27.4915 8.78668 27.3853L8.61799 27.2081H6.15088H3.68377L3.51508 27.3853Z" fill="white"/>
<path d="M10.2608 27.3853C10.1483 27.4915 10.0851 27.6403 10.0851 27.775C10.0851 27.9096 10.1483 28.0584 10.2608 28.1647C10.4295 28.3418 10.4436 28.3418 11.772 28.3418C13.1004 28.3418 13.1145 28.3418 13.2832 28.1647C13.3957 28.0584 13.4589 27.9096 13.4589 27.775C13.4589 27.6403 13.3957 27.4915 13.2832 27.3853C13.1145 27.2081 13.1004 27.2081 11.772 27.2081C10.4436 27.2081 10.4295 27.2081 10.2608 27.3853Z" fill="white"/>
<path d="M26.688 22.7253C26.6388 22.7466 25.6477 24.1991 24.488 25.9492L22.3723 29.1376L21.4094 28.174C20.5729 27.3379 20.4113 27.2104 20.2145 27.2104C19.9122 27.2104 19.6451 27.4797 19.6451 27.7843C19.6451 27.9898 19.7927 28.1669 20.8963 29.2794C21.5781 29.9737 22.2107 30.5618 22.302 30.5831C22.7097 30.6893 22.7167 30.6823 25.1417 27.012C26.695 24.6738 27.4823 23.4126 27.5033 23.2638C27.5526 22.8671 27.0957 22.5624 26.688 22.7253Z" fill="white"/>
</svg>
